%TF.GenerationSoftware,KiCad,Pcbnew,(6.0.0)*%
%TF.CreationDate,2022-02-08T13:18:20+01:00*%
%TF.ProjectId,hotkeyboard,686f746b-6579-4626-9f61-72642e6b6963,rev?*%
%TF.SameCoordinates,Original*%
%TF.FileFunction,Legend,Top*%
%TF.FilePolarity,Positive*%
%FSLAX46Y46*%
G04 Gerber Fmt 4.6, Leading zero omitted, Abs format (unit mm)*
G04 Created by KiCad (PCBNEW (6.0.0)) date 2022-02-08 13:18:20*
%MOMM*%
%LPD*%
G01*
G04 APERTURE LIST*
%ADD10C,0.150000*%
%ADD11C,0.120000*%
G04 APERTURE END LIST*
D10*
X25972380Y-79453809D02*
X25972380Y-80025238D01*
X25972380Y-79739523D02*
X24972380Y-79739523D01*
X25115238Y-79834761D01*
X25210476Y-79930000D01*
X25258095Y-80025238D01*
X24972380Y-78834761D02*
X24972380Y-78739523D01*
X25020000Y-78644285D01*
X25067619Y-78596666D01*
X25162857Y-78549047D01*
X25353333Y-78501428D01*
X25591428Y-78501428D01*
X25781904Y-78549047D01*
X25877142Y-78596666D01*
X25924761Y-78644285D01*
X25972380Y-78739523D01*
X25972380Y-78834761D01*
X25924761Y-78930000D01*
X25877142Y-78977619D01*
X25781904Y-79025238D01*
X25591428Y-79072857D01*
X25353333Y-79072857D01*
X25162857Y-79025238D01*
X25067619Y-78977619D01*
X25020000Y-78930000D01*
X24972380Y-78834761D01*
X25305714Y-77644285D02*
X25972380Y-77644285D01*
X24924761Y-77882380D02*
X25639047Y-78120476D01*
X25639047Y-77501428D01*
X25924761Y-77072857D02*
X25972380Y-77072857D01*
X26067619Y-77120476D01*
X26115238Y-77168095D01*
X25972380Y-76120476D02*
X25972380Y-76691904D01*
X25972380Y-76406190D02*
X24972380Y-76406190D01*
X25115238Y-76501428D01*
X25210476Y-76596666D01*
X25258095Y-76691904D01*
X25305714Y-75263333D02*
X25972380Y-75263333D01*
X24924761Y-75501428D02*
X25639047Y-75739523D01*
X25639047Y-75120476D01*
X24972380Y-74549047D02*
X24972380Y-74453809D01*
X25020000Y-74358571D01*
X25067619Y-74310952D01*
X25162857Y-74263333D01*
X25353333Y-74215714D01*
X25591428Y-74215714D01*
X25781904Y-74263333D01*
X25877142Y-74310952D01*
X25924761Y-74358571D01*
X25972380Y-74453809D01*
X25972380Y-74549047D01*
X25924761Y-74644285D01*
X25877142Y-74691904D01*
X25781904Y-74739523D01*
X25591428Y-74787142D01*
X25353333Y-74787142D01*
X25162857Y-74739523D01*
X25067619Y-74691904D01*
X25020000Y-74644285D01*
X24972380Y-74549047D01*
X24972380Y-73596666D02*
X24972380Y-73501428D01*
X25020000Y-73406190D01*
X25067619Y-73358571D01*
X25162857Y-73310952D01*
X25353333Y-73263333D01*
X25591428Y-73263333D01*
X25781904Y-73310952D01*
X25877142Y-73358571D01*
X25924761Y-73406190D01*
X25972380Y-73501428D01*
X25972380Y-73596666D01*
X25924761Y-73691904D01*
X25877142Y-73739523D01*
X25781904Y-73787142D01*
X25591428Y-73834761D01*
X25353333Y-73834761D01*
X25162857Y-73787142D01*
X25067619Y-73739523D01*
X25020000Y-73691904D01*
X24972380Y-73596666D01*
X25972380Y-72072857D02*
X25305714Y-72072857D01*
X25400952Y-72072857D02*
X25353333Y-72025238D01*
X25305714Y-71930000D01*
X25305714Y-71787142D01*
X25353333Y-71691904D01*
X25448571Y-71644285D01*
X25972380Y-71644285D01*
X25448571Y-71644285D02*
X25353333Y-71596666D01*
X25305714Y-71501428D01*
X25305714Y-71358571D01*
X25353333Y-71263333D01*
X25448571Y-71215714D01*
X25972380Y-71215714D01*
X25972380Y-70739523D02*
X25305714Y-70739523D01*
X25400952Y-70739523D02*
X25353333Y-70691904D01*
X25305714Y-70596666D01*
X25305714Y-70453809D01*
X25353333Y-70358571D01*
X25448571Y-70310952D01*
X25972380Y-70310952D01*
X25448571Y-70310952D02*
X25353333Y-70263333D01*
X25305714Y-70168095D01*
X25305714Y-70025238D01*
X25353333Y-69930000D01*
X25448571Y-69882380D01*
X25972380Y-69882380D01*
X39505000Y-127000000D02*
X26083580Y-127000000D01*
X39505000Y-22860000D02*
X26083580Y-22860000D01*
X26670000Y-127000000D02*
X26670000Y-80790714D01*
X26670000Y-69069285D02*
X26670000Y-22860000D01*
X26670000Y-127000000D02*
X27256421Y-125873496D01*
X26670000Y-127000000D02*
X26083579Y-125873496D01*
X26670000Y-22860000D02*
X26083579Y-23986504D01*
X26670000Y-22860000D02*
X27256421Y-23986504D01*
X99616190Y-146622380D02*
X99044761Y-146622380D01*
X99330476Y-146622380D02*
X99330476Y-145622380D01*
X99235238Y-145765238D01*
X99140000Y-145860476D01*
X99044761Y-145908095D01*
X99997142Y-145717619D02*
X100044761Y-145670000D01*
X100140000Y-145622380D01*
X100378095Y-145622380D01*
X100473333Y-145670000D01*
X100520952Y-145717619D01*
X100568571Y-145812857D01*
X100568571Y-145908095D01*
X100520952Y-146050952D01*
X99949523Y-146622380D01*
X100568571Y-146622380D01*
X101140000Y-146050952D02*
X101044761Y-146003333D01*
X100997142Y-145955714D01*
X100949523Y-145860476D01*
X100949523Y-145812857D01*
X100997142Y-145717619D01*
X101044761Y-145670000D01*
X101140000Y-145622380D01*
X101330476Y-145622380D01*
X101425714Y-145670000D01*
X101473333Y-145717619D01*
X101520952Y-145812857D01*
X101520952Y-145860476D01*
X101473333Y-145955714D01*
X101425714Y-146003333D01*
X101330476Y-146050952D01*
X101140000Y-146050952D01*
X101044761Y-146098571D01*
X100997142Y-146146190D01*
X100949523Y-146241428D01*
X100949523Y-146431904D01*
X100997142Y-146527142D01*
X101044761Y-146574761D01*
X101140000Y-146622380D01*
X101330476Y-146622380D01*
X101425714Y-146574761D01*
X101473333Y-146527142D01*
X101520952Y-146431904D01*
X101520952Y-146241428D01*
X101473333Y-146146190D01*
X101425714Y-146098571D01*
X101330476Y-146050952D01*
X101997142Y-146574761D02*
X101997142Y-146622380D01*
X101949523Y-146717619D01*
X101901904Y-146765238D01*
X102378095Y-145717619D02*
X102425714Y-145670000D01*
X102520952Y-145622380D01*
X102759047Y-145622380D01*
X102854285Y-145670000D01*
X102901904Y-145717619D01*
X102949523Y-145812857D01*
X102949523Y-145908095D01*
X102901904Y-146050952D01*
X102330476Y-146622380D01*
X102949523Y-146622380D01*
X103282857Y-145622380D02*
X103949523Y-145622380D01*
X103520952Y-146622380D01*
X104520952Y-145622380D02*
X104616190Y-145622380D01*
X104711428Y-145670000D01*
X104759047Y-145717619D01*
X104806666Y-145812857D01*
X104854285Y-146003333D01*
X104854285Y-146241428D01*
X104806666Y-146431904D01*
X104759047Y-146527142D01*
X104711428Y-146574761D01*
X104616190Y-146622380D01*
X104520952Y-146622380D01*
X104425714Y-146574761D01*
X104378095Y-146527142D01*
X104330476Y-146431904D01*
X104282857Y-146241428D01*
X104282857Y-146003333D01*
X104330476Y-145812857D01*
X104378095Y-145717619D01*
X104425714Y-145670000D01*
X104520952Y-145622380D01*
X105473333Y-145622380D02*
X105568571Y-145622380D01*
X105663809Y-145670000D01*
X105711428Y-145717619D01*
X105759047Y-145812857D01*
X105806666Y-146003333D01*
X105806666Y-146241428D01*
X105759047Y-146431904D01*
X105711428Y-146527142D01*
X105663809Y-146574761D01*
X105568571Y-146622380D01*
X105473333Y-146622380D01*
X105378095Y-146574761D01*
X105330476Y-146527142D01*
X105282857Y-146431904D01*
X105235238Y-146241428D01*
X105235238Y-146003333D01*
X105282857Y-145812857D01*
X105330476Y-145717619D01*
X105378095Y-145670000D01*
X105473333Y-145622380D01*
X106997142Y-146622380D02*
X106997142Y-145955714D01*
X106997142Y-146050952D02*
X107044761Y-146003333D01*
X107140000Y-145955714D01*
X107282857Y-145955714D01*
X107378095Y-146003333D01*
X107425714Y-146098571D01*
X107425714Y-146622380D01*
X107425714Y-146098571D02*
X107473333Y-146003333D01*
X107568571Y-145955714D01*
X107711428Y-145955714D01*
X107806666Y-146003333D01*
X107854285Y-146098571D01*
X107854285Y-146622380D01*
X108330476Y-146622380D02*
X108330476Y-145955714D01*
X108330476Y-146050952D02*
X108378095Y-146003333D01*
X108473333Y-145955714D01*
X108616190Y-145955714D01*
X108711428Y-146003333D01*
X108759047Y-146098571D01*
X108759047Y-146622380D01*
X108759047Y-146098571D02*
X108806666Y-146003333D01*
X108901904Y-145955714D01*
X109044761Y-145955714D01*
X109140000Y-146003333D01*
X109187619Y-146098571D01*
X109187619Y-146622380D01*
X40005000Y-127500000D02*
X40005000Y-147906420D01*
X168275000Y-127500000D02*
X168275000Y-147906420D01*
X40005000Y-147320000D02*
X98279286Y-147320000D01*
X110000715Y-147320000D02*
X168275000Y-147320000D01*
X40005000Y-147320000D02*
X41131504Y-147906421D01*
X40005000Y-147320000D02*
X41131504Y-146733579D01*
X168275000Y-147320000D02*
X167148496Y-146733579D01*
X168275000Y-147320000D02*
X167148496Y-147906421D01*
X158974761Y-91359523D02*
X156974761Y-91359523D01*
X157927142Y-91359523D02*
X157927142Y-90216666D01*
X158974761Y-90216666D02*
X156974761Y-90216666D01*
X158974761Y-88978571D02*
X158879523Y-89169047D01*
X158784285Y-89264285D01*
X158593809Y-89359523D01*
X158022380Y-89359523D01*
X157831904Y-89264285D01*
X157736666Y-89169047D01*
X157641428Y-88978571D01*
X157641428Y-88692857D01*
X157736666Y-88502380D01*
X157831904Y-88407142D01*
X158022380Y-88311904D01*
X158593809Y-88311904D01*
X158784285Y-88407142D01*
X158879523Y-88502380D01*
X158974761Y-88692857D01*
X158974761Y-88978571D01*
X157641428Y-87740476D02*
X157641428Y-86978571D01*
X156974761Y-87454761D02*
X158689047Y-87454761D01*
X158879523Y-87359523D01*
X158974761Y-87169047D01*
X158974761Y-86978571D01*
X158974761Y-86311904D02*
X156974761Y-86311904D01*
X158212857Y-86121428D02*
X158974761Y-85550000D01*
X157641428Y-85550000D02*
X158403333Y-86311904D01*
X158879523Y-83930952D02*
X158974761Y-84121428D01*
X158974761Y-84502380D01*
X158879523Y-84692857D01*
X158689047Y-84788095D01*
X157927142Y-84788095D01*
X157736666Y-84692857D01*
X157641428Y-84502380D01*
X157641428Y-84121428D01*
X157736666Y-83930952D01*
X157927142Y-83835714D01*
X158117619Y-83835714D01*
X158308095Y-84788095D01*
X157641428Y-83169047D02*
X158974761Y-82692857D01*
X157641428Y-82216666D02*
X158974761Y-82692857D01*
X159450952Y-82883333D01*
X159546190Y-82978571D01*
X159641428Y-83169047D01*
X157927142Y-80788095D02*
X158022380Y-80502380D01*
X158117619Y-80407142D01*
X158308095Y-80311904D01*
X158593809Y-80311904D01*
X158784285Y-80407142D01*
X158879523Y-80502380D01*
X158974761Y-80692857D01*
X158974761Y-81454761D01*
X156974761Y-81454761D01*
X156974761Y-80788095D01*
X157070000Y-80597619D01*
X157165238Y-80502380D01*
X157355714Y-80407142D01*
X157546190Y-80407142D01*
X157736666Y-80502380D01*
X157831904Y-80597619D01*
X157927142Y-80788095D01*
X157927142Y-81454761D01*
X158974761Y-79169047D02*
X158879523Y-79359523D01*
X158784285Y-79454761D01*
X158593809Y-79550000D01*
X158022380Y-79550000D01*
X157831904Y-79454761D01*
X157736666Y-79359523D01*
X157641428Y-79169047D01*
X157641428Y-78883333D01*
X157736666Y-78692857D01*
X157831904Y-78597619D01*
X158022380Y-78502380D01*
X158593809Y-78502380D01*
X158784285Y-78597619D01*
X158879523Y-78692857D01*
X158974761Y-78883333D01*
X158974761Y-79169047D01*
X158974761Y-76788095D02*
X157927142Y-76788095D01*
X157736666Y-76883333D01*
X157641428Y-77073809D01*
X157641428Y-77454761D01*
X157736666Y-77645238D01*
X158879523Y-76788095D02*
X158974761Y-76978571D01*
X158974761Y-77454761D01*
X158879523Y-77645238D01*
X158689047Y-77740476D01*
X158498571Y-77740476D01*
X158308095Y-77645238D01*
X158212857Y-77454761D01*
X158212857Y-76978571D01*
X158117619Y-76788095D01*
X158974761Y-75835714D02*
X157641428Y-75835714D01*
X158022380Y-75835714D02*
X157831904Y-75740476D01*
X157736666Y-75645238D01*
X157641428Y-75454761D01*
X157641428Y-75264285D01*
X158974761Y-73740476D02*
X156974761Y-73740476D01*
X158879523Y-73740476D02*
X158974761Y-73930952D01*
X158974761Y-74311904D01*
X158879523Y-74502380D01*
X158784285Y-74597619D01*
X158593809Y-74692857D01*
X158022380Y-74692857D01*
X157831904Y-74597619D01*
X157736666Y-74502380D01*
X157641428Y-74311904D01*
X157641428Y-73930952D01*
X157736666Y-73740476D01*
X160194761Y-85597619D02*
X162194761Y-84930952D01*
X160194761Y-84264285D01*
X162194761Y-82550000D02*
X162194761Y-83692857D01*
X162194761Y-83121428D02*
X160194761Y-83121428D01*
X160480476Y-83311904D01*
X160670952Y-83502380D01*
X160766190Y-83692857D01*
X162004285Y-81692857D02*
X162099523Y-81597619D01*
X162194761Y-81692857D01*
X162099523Y-81788095D01*
X162004285Y-81692857D01*
X162194761Y-81692857D01*
X160194761Y-80359523D02*
X160194761Y-80169047D01*
X160290000Y-79978571D01*
X160385238Y-79883333D01*
X160575714Y-79788095D01*
X160956666Y-79692857D01*
X161432857Y-79692857D01*
X161813809Y-79788095D01*
X162004285Y-79883333D01*
X162099523Y-79978571D01*
X162194761Y-80169047D01*
X162194761Y-80359523D01*
X162099523Y-80550000D01*
X162004285Y-80645238D01*
X161813809Y-80740476D01*
X161432857Y-80835714D01*
X160956666Y-80835714D01*
X160575714Y-80740476D01*
X160385238Y-80645238D01*
X160290000Y-80550000D01*
X160194761Y-80359523D01*
X164367142Y-86883333D02*
X164462380Y-86597619D01*
X164557619Y-86502380D01*
X164748095Y-86407142D01*
X165033809Y-86407142D01*
X165224285Y-86502380D01*
X165319523Y-86597619D01*
X165414761Y-86788095D01*
X165414761Y-87550000D01*
X163414761Y-87550000D01*
X163414761Y-86883333D01*
X163510000Y-86692857D01*
X163605238Y-86597619D01*
X163795714Y-86502380D01*
X163986190Y-86502380D01*
X164176666Y-86597619D01*
X164271904Y-86692857D01*
X164367142Y-86883333D01*
X164367142Y-87550000D01*
X164081428Y-85740476D02*
X165414761Y-85264285D01*
X164081428Y-84788095D02*
X165414761Y-85264285D01*
X165890952Y-85454761D01*
X165986190Y-85550000D01*
X166081428Y-85740476D01*
X164843333Y-82597619D02*
X164843333Y-81645238D01*
X165414761Y-82788095D02*
X163414761Y-82121428D01*
X165414761Y-81454761D01*
X165224285Y-80788095D02*
X165319523Y-80692857D01*
X165414761Y-80788095D01*
X165319523Y-80883333D01*
X165224285Y-80788095D01*
X165414761Y-80788095D01*
X165414761Y-79835714D02*
X163414761Y-79835714D01*
X164843333Y-79169047D01*
X163414761Y-78502380D01*
X165414761Y-78502380D01*
X165224285Y-77550000D02*
X165319523Y-77454761D01*
X165414761Y-77550000D01*
X165319523Y-77645238D01*
X165224285Y-77550000D01*
X165414761Y-77550000D01*
%TO.C,U1*%
X148522619Y-37573095D02*
X147713095Y-37573095D01*
X147617857Y-37620714D01*
X147570238Y-37668333D01*
X147522619Y-37763571D01*
X147522619Y-37954047D01*
X147570238Y-38049285D01*
X147617857Y-38096904D01*
X147713095Y-38144523D01*
X148522619Y-38144523D01*
X147522619Y-39144523D02*
X147522619Y-38573095D01*
X147522619Y-38858809D02*
X148522619Y-38858809D01*
X148379761Y-38763571D01*
X148284523Y-38668333D01*
X148236904Y-38573095D01*
X124287619Y-43224523D02*
X124287619Y-42653095D01*
X124287619Y-42938809D02*
X125287619Y-42938809D01*
X125144761Y-42843571D01*
X125049523Y-42748333D01*
X125001904Y-42653095D01*
X124954285Y-44081666D02*
X124287619Y-44081666D01*
X125335238Y-43843571D02*
X124620952Y-43605476D01*
X124620952Y-44224523D01*
X121747619Y-43224523D02*
X121747619Y-42653095D01*
X121747619Y-42938809D02*
X122747619Y-42938809D01*
X122604761Y-42843571D01*
X122509523Y-42748333D01*
X122461904Y-42653095D01*
X122747619Y-44081666D02*
X122747619Y-43891190D01*
X122700000Y-43795952D01*
X122652380Y-43748333D01*
X122509523Y-43653095D01*
X122319047Y-43605476D01*
X121938095Y-43605476D01*
X121842857Y-43653095D01*
X121795238Y-43700714D01*
X121747619Y-43795952D01*
X121747619Y-43986428D01*
X121795238Y-44081666D01*
X121842857Y-44129285D01*
X121938095Y-44176904D01*
X122176190Y-44176904D01*
X122271428Y-44129285D01*
X122319047Y-44081666D01*
X122366666Y-43986428D01*
X122366666Y-43795952D01*
X122319047Y-43700714D01*
X122271428Y-43653095D01*
X122176190Y-43605476D01*
X119207619Y-43224523D02*
X119207619Y-42653095D01*
X119207619Y-42938809D02*
X120207619Y-42938809D01*
X120064761Y-42843571D01*
X119969523Y-42748333D01*
X119921904Y-42653095D01*
X120207619Y-43843571D02*
X120207619Y-43938809D01*
X120160000Y-44034047D01*
X120112380Y-44081666D01*
X120017142Y-44129285D01*
X119826666Y-44176904D01*
X119588571Y-44176904D01*
X119398095Y-44129285D01*
X119302857Y-44081666D01*
X119255238Y-44034047D01*
X119207619Y-43938809D01*
X119207619Y-43843571D01*
X119255238Y-43748333D01*
X119302857Y-43700714D01*
X119398095Y-43653095D01*
X119588571Y-43605476D01*
X119826666Y-43605476D01*
X120017142Y-43653095D01*
X120112380Y-43700714D01*
X120160000Y-43748333D01*
X120207619Y-43843571D01*
X132193333Y-42700714D02*
X132193333Y-43176904D01*
X131907619Y-42605476D02*
X132907619Y-42938809D01*
X131907619Y-43272142D01*
X131907619Y-44129285D02*
X131907619Y-43557857D01*
X131907619Y-43843571D02*
X132907619Y-43843571D01*
X132764761Y-43748333D01*
X132669523Y-43653095D01*
X132621904Y-43557857D01*
X122319047Y-32524761D02*
X122366666Y-32429523D01*
X122414285Y-32381904D01*
X122509523Y-32334285D01*
X122557142Y-32334285D01*
X122652380Y-32381904D01*
X122700000Y-32429523D01*
X122747619Y-32524761D01*
X122747619Y-32715238D01*
X122700000Y-32810476D01*
X122652380Y-32858095D01*
X122557142Y-32905714D01*
X122509523Y-32905714D01*
X122414285Y-32858095D01*
X122366666Y-32810476D01*
X122319047Y-32715238D01*
X122319047Y-32524761D01*
X122271428Y-32429523D01*
X122223809Y-32381904D01*
X122128571Y-32334285D01*
X121938095Y-32334285D01*
X121842857Y-32381904D01*
X121795238Y-32429523D01*
X121747619Y-32524761D01*
X121747619Y-32715238D01*
X121795238Y-32810476D01*
X121842857Y-32858095D01*
X121938095Y-32905714D01*
X122128571Y-32905714D01*
X122223809Y-32858095D01*
X122271428Y-32810476D01*
X122319047Y-32715238D01*
X149052619Y-43994523D02*
X149528809Y-43661190D01*
X149052619Y-43423095D02*
X150052619Y-43423095D01*
X150052619Y-43804047D01*
X150005000Y-43899285D01*
X149957380Y-43946904D01*
X149862142Y-43994523D01*
X149719285Y-43994523D01*
X149624047Y-43946904D01*
X149576428Y-43899285D01*
X149528809Y-43804047D01*
X149528809Y-43423095D01*
X149338333Y-44375476D02*
X149338333Y-44851666D01*
X149052619Y-44280238D02*
X150052619Y-44613571D01*
X149052619Y-44946904D01*
X150052619Y-45185000D02*
X149052619Y-45423095D01*
X149766904Y-45613571D01*
X149052619Y-45804047D01*
X150052619Y-46042142D01*
X127827619Y-32810476D02*
X127827619Y-32620000D01*
X127780000Y-32524761D01*
X127732380Y-32477142D01*
X127589523Y-32381904D01*
X127399047Y-32334285D01*
X127018095Y-32334285D01*
X126922857Y-32381904D01*
X126875238Y-32429523D01*
X126827619Y-32524761D01*
X126827619Y-32715238D01*
X126875238Y-32810476D01*
X126922857Y-32858095D01*
X127018095Y-32905714D01*
X127256190Y-32905714D01*
X127351428Y-32858095D01*
X127399047Y-32810476D01*
X127446666Y-32715238D01*
X127446666Y-32524761D01*
X127399047Y-32429523D01*
X127351428Y-32381904D01*
X127256190Y-32334285D01*
X119022619Y-32429523D02*
X119022619Y-32620000D01*
X119070238Y-32715238D01*
X119117857Y-32762857D01*
X119260714Y-32858095D01*
X119451190Y-32905714D01*
X119832142Y-32905714D01*
X119927380Y-32858095D01*
X119975000Y-32810476D01*
X120022619Y-32715238D01*
X120022619Y-32524761D01*
X119975000Y-32429523D01*
X119927380Y-32381904D01*
X119832142Y-32334285D01*
X119594047Y-32334285D01*
X119498809Y-32381904D01*
X119451190Y-32429523D01*
X119403571Y-32524761D01*
X119403571Y-32715238D01*
X119451190Y-32810476D01*
X119498809Y-32858095D01*
X119594047Y-32905714D01*
X134733333Y-42700714D02*
X134733333Y-43176904D01*
X134447619Y-42605476D02*
X135447619Y-42938809D01*
X134447619Y-43272142D01*
X135352380Y-43557857D02*
X135400000Y-43605476D01*
X135447619Y-43700714D01*
X135447619Y-43938809D01*
X135400000Y-44034047D01*
X135352380Y-44081666D01*
X135257142Y-44129285D01*
X135161904Y-44129285D01*
X135019047Y-44081666D01*
X134447619Y-43510238D01*
X134447619Y-44129285D01*
X143020000Y-32493095D02*
X143067619Y-32397857D01*
X143067619Y-32255000D01*
X143020000Y-32112142D01*
X142924761Y-32016904D01*
X142829523Y-31969285D01*
X142639047Y-31921666D01*
X142496190Y-31921666D01*
X142305714Y-31969285D01*
X142210476Y-32016904D01*
X142115238Y-32112142D01*
X142067619Y-32255000D01*
X142067619Y-32350238D01*
X142115238Y-32493095D01*
X142162857Y-32540714D01*
X142496190Y-32540714D01*
X142496190Y-32350238D01*
X142067619Y-32969285D02*
X143067619Y-32969285D01*
X142067619Y-33540714D01*
X143067619Y-33540714D01*
X142067619Y-34016904D02*
X143067619Y-34016904D01*
X143067619Y-34255000D01*
X143020000Y-34397857D01*
X142924761Y-34493095D01*
X142829523Y-34540714D01*
X142639047Y-34588333D01*
X142496190Y-34588333D01*
X142305714Y-34540714D01*
X142210476Y-34493095D01*
X142115238Y-34397857D01*
X142067619Y-34255000D01*
X142067619Y-34016904D01*
X135447619Y-32286666D02*
X135447619Y-32905714D01*
X135066666Y-32572380D01*
X135066666Y-32715238D01*
X135019047Y-32810476D01*
X134971428Y-32858095D01*
X134876190Y-32905714D01*
X134638095Y-32905714D01*
X134542857Y-32858095D01*
X134495238Y-32810476D01*
X134447619Y-32715238D01*
X134447619Y-32429523D01*
X134495238Y-32334285D01*
X134542857Y-32286666D01*
X137273333Y-42700714D02*
X137273333Y-43176904D01*
X136987619Y-42605476D02*
X137987619Y-42938809D01*
X136987619Y-43272142D01*
X137987619Y-43510238D02*
X137987619Y-44129285D01*
X137606666Y-43795952D01*
X137606666Y-43938809D01*
X137559047Y-44034047D01*
X137511428Y-44081666D01*
X137416190Y-44129285D01*
X137178095Y-44129285D01*
X137082857Y-44081666D01*
X137035238Y-44034047D01*
X136987619Y-43938809D01*
X136987619Y-43653095D01*
X137035238Y-43557857D01*
X137082857Y-43510238D01*
X125287619Y-32286666D02*
X125287619Y-32953333D01*
X124287619Y-32524761D01*
X145560000Y-42653095D02*
X145607619Y-42557857D01*
X145607619Y-42415000D01*
X145560000Y-42272142D01*
X145464761Y-42176904D01*
X145369523Y-42129285D01*
X145179047Y-42081666D01*
X145036190Y-42081666D01*
X144845714Y-42129285D01*
X144750476Y-42176904D01*
X144655238Y-42272142D01*
X144607619Y-42415000D01*
X144607619Y-42510238D01*
X144655238Y-42653095D01*
X144702857Y-42700714D01*
X145036190Y-42700714D01*
X145036190Y-42510238D01*
X144607619Y-43129285D02*
X145607619Y-43129285D01*
X144607619Y-43700714D01*
X145607619Y-43700714D01*
X144607619Y-44176904D02*
X145607619Y-44176904D01*
X145607619Y-44415000D01*
X145560000Y-44557857D01*
X145464761Y-44653095D01*
X145369523Y-44700714D01*
X145179047Y-44748333D01*
X145036190Y-44748333D01*
X144845714Y-44700714D01*
X144750476Y-44653095D01*
X144655238Y-44557857D01*
X144607619Y-44415000D01*
X144607619Y-44176904D01*
X143020000Y-42653095D02*
X143067619Y-42557857D01*
X143067619Y-42415000D01*
X143020000Y-42272142D01*
X142924761Y-42176904D01*
X142829523Y-42129285D01*
X142639047Y-42081666D01*
X142496190Y-42081666D01*
X142305714Y-42129285D01*
X142210476Y-42176904D01*
X142115238Y-42272142D01*
X142067619Y-42415000D01*
X142067619Y-42510238D01*
X142115238Y-42653095D01*
X142162857Y-42700714D01*
X142496190Y-42700714D01*
X142496190Y-42510238D01*
X142067619Y-43129285D02*
X143067619Y-43129285D01*
X142067619Y-43700714D01*
X143067619Y-43700714D01*
X142067619Y-44176904D02*
X143067619Y-44176904D01*
X143067619Y-44415000D01*
X143020000Y-44557857D01*
X142924761Y-44653095D01*
X142829523Y-44700714D01*
X142639047Y-44748333D01*
X142496190Y-44748333D01*
X142305714Y-44700714D01*
X142210476Y-44653095D01*
X142115238Y-44557857D01*
X142067619Y-44415000D01*
X142067619Y-44176904D01*
X130367619Y-32858095D02*
X130367619Y-32381904D01*
X129891428Y-32334285D01*
X129939047Y-32381904D01*
X129986666Y-32477142D01*
X129986666Y-32715238D01*
X129939047Y-32810476D01*
X129891428Y-32858095D01*
X129796190Y-32905714D01*
X129558095Y-32905714D01*
X129462857Y-32858095D01*
X129415238Y-32810476D01*
X129367619Y-32715238D01*
X129367619Y-32477142D01*
X129415238Y-32381904D01*
X129462857Y-32334285D01*
X132574285Y-32810476D02*
X131907619Y-32810476D01*
X132955238Y-32572380D02*
X132240952Y-32334285D01*
X132240952Y-32953333D01*
X140480000Y-32493095D02*
X140527619Y-32397857D01*
X140527619Y-32255000D01*
X140480000Y-32112142D01*
X140384761Y-32016904D01*
X140289523Y-31969285D01*
X140099047Y-31921666D01*
X139956190Y-31921666D01*
X139765714Y-31969285D01*
X139670476Y-32016904D01*
X139575238Y-32112142D01*
X139527619Y-32255000D01*
X139527619Y-32350238D01*
X139575238Y-32493095D01*
X139622857Y-32540714D01*
X139956190Y-32540714D01*
X139956190Y-32350238D01*
X139527619Y-32969285D02*
X140527619Y-32969285D01*
X139527619Y-33540714D01*
X140527619Y-33540714D01*
X139527619Y-34016904D02*
X140527619Y-34016904D01*
X140527619Y-34255000D01*
X140480000Y-34397857D01*
X140384761Y-34493095D01*
X140289523Y-34540714D01*
X140099047Y-34588333D01*
X139956190Y-34588333D01*
X139765714Y-34540714D01*
X139670476Y-34493095D01*
X139575238Y-34397857D01*
X139527619Y-34255000D01*
X139527619Y-34016904D01*
X129653333Y-42700714D02*
X129653333Y-43176904D01*
X129367619Y-42605476D02*
X130367619Y-42938809D01*
X129367619Y-43272142D01*
X130367619Y-43795952D02*
X130367619Y-43891190D01*
X130320000Y-43986428D01*
X130272380Y-44034047D01*
X130177142Y-44081666D01*
X129986666Y-44129285D01*
X129748571Y-44129285D01*
X129558095Y-44081666D01*
X129462857Y-44034047D01*
X129415238Y-43986428D01*
X129367619Y-43891190D01*
X129367619Y-43795952D01*
X129415238Y-43700714D01*
X129462857Y-43653095D01*
X129558095Y-43605476D01*
X129748571Y-43557857D01*
X129986666Y-43557857D01*
X130177142Y-43605476D01*
X130272380Y-43653095D01*
X130320000Y-43700714D01*
X130367619Y-43795952D01*
X126827619Y-43224523D02*
X126827619Y-42653095D01*
X126827619Y-42938809D02*
X127827619Y-42938809D01*
X127684761Y-42843571D01*
X127589523Y-42748333D01*
X127541904Y-42653095D01*
X127827619Y-44129285D02*
X127827619Y-43653095D01*
X127351428Y-43605476D01*
X127399047Y-43653095D01*
X127446666Y-43748333D01*
X127446666Y-43986428D01*
X127399047Y-44081666D01*
X127351428Y-44129285D01*
X127256190Y-44176904D01*
X127018095Y-44176904D01*
X126922857Y-44129285D01*
X126875238Y-44081666D01*
X126827619Y-43986428D01*
X126827619Y-43748333D01*
X126875238Y-43653095D01*
X126922857Y-43605476D01*
X140527619Y-42081666D02*
X139527619Y-42415000D01*
X140527619Y-42748333D01*
X139622857Y-43653095D02*
X139575238Y-43605476D01*
X139527619Y-43462619D01*
X139527619Y-43367380D01*
X139575238Y-43224523D01*
X139670476Y-43129285D01*
X139765714Y-43081666D01*
X139956190Y-43034047D01*
X140099047Y-43034047D01*
X140289523Y-43081666D01*
X140384761Y-43129285D01*
X140480000Y-43224523D01*
X140527619Y-43367380D01*
X140527619Y-43462619D01*
X140480000Y-43605476D01*
X140432380Y-43653095D01*
X139622857Y-44653095D02*
X139575238Y-44605476D01*
X139527619Y-44462619D01*
X139527619Y-44367380D01*
X139575238Y-44224523D01*
X139670476Y-44129285D01*
X139765714Y-44081666D01*
X139956190Y-44034047D01*
X140099047Y-44034047D01*
X140289523Y-44081666D01*
X140384761Y-44129285D01*
X140480000Y-44224523D01*
X140527619Y-44367380D01*
X140527619Y-44462619D01*
X140480000Y-44605476D01*
X140432380Y-44653095D01*
X144607619Y-32905714D02*
X144607619Y-32334285D01*
X144607619Y-32620000D02*
X145607619Y-32620000D01*
X145464761Y-32524761D01*
X145369523Y-32429523D01*
X145321904Y-32334285D01*
X148147619Y-32572380D02*
X148147619Y-32667619D01*
X148100000Y-32762857D01*
X148052380Y-32810476D01*
X147957142Y-32858095D01*
X147766666Y-32905714D01*
X147528571Y-32905714D01*
X147338095Y-32858095D01*
X147242857Y-32810476D01*
X147195238Y-32762857D01*
X147147619Y-32667619D01*
X147147619Y-32572380D01*
X147195238Y-32477142D01*
X147242857Y-32429523D01*
X147338095Y-32381904D01*
X147528571Y-32334285D01*
X147766666Y-32334285D01*
X147957142Y-32381904D01*
X148052380Y-32429523D01*
X148100000Y-32477142D01*
X148147619Y-32572380D01*
X137892380Y-32334285D02*
X137940000Y-32381904D01*
X137987619Y-32477142D01*
X137987619Y-32715238D01*
X137940000Y-32810476D01*
X137892380Y-32858095D01*
X137797142Y-32905714D01*
X137701904Y-32905714D01*
X137559047Y-32858095D01*
X136987619Y-32286666D01*
X136987619Y-32905714D01*
%TO.C,REF\u002A\u002A*%
X44386666Y-24592380D02*
X44053333Y-24116190D01*
X43815238Y-24592380D02*
X43815238Y-23592380D01*
X44196190Y-23592380D01*
X44291428Y-23640000D01*
X44339047Y-23687619D01*
X44386666Y-23782857D01*
X44386666Y-23925714D01*
X44339047Y-24020952D01*
X44291428Y-24068571D01*
X44196190Y-24116190D01*
X43815238Y-24116190D01*
X44815238Y-24068571D02*
X45148571Y-24068571D01*
X45291428Y-24592380D02*
X44815238Y-24592380D01*
X44815238Y-23592380D01*
X45291428Y-23592380D01*
X46053333Y-24068571D02*
X45720000Y-24068571D01*
X45720000Y-24592380D02*
X45720000Y-23592380D01*
X46196190Y-23592380D01*
X46720000Y-23592380D02*
X46720000Y-23830476D01*
X46481904Y-23735238D02*
X46720000Y-23830476D01*
X46958095Y-23735238D01*
X46577142Y-24020952D02*
X46720000Y-23830476D01*
X46862857Y-24020952D01*
X47481904Y-23592380D02*
X47481904Y-23830476D01*
X47243809Y-23735238D02*
X47481904Y-23830476D01*
X47720000Y-23735238D01*
X47339047Y-24020952D02*
X47481904Y-23830476D01*
X47624761Y-24020952D01*
%TO.C,*%
%TO.C,REF\u002A\u002A*%
X161226666Y-118572380D02*
X160893333Y-118096190D01*
X160655238Y-118572380D02*
X160655238Y-117572380D01*
X161036190Y-117572380D01*
X161131428Y-117620000D01*
X161179047Y-117667619D01*
X161226666Y-117762857D01*
X161226666Y-117905714D01*
X161179047Y-118000952D01*
X161131428Y-118048571D01*
X161036190Y-118096190D01*
X160655238Y-118096190D01*
X161655238Y-118048571D02*
X161988571Y-118048571D01*
X162131428Y-118572380D02*
X161655238Y-118572380D01*
X161655238Y-117572380D01*
X162131428Y-117572380D01*
X162893333Y-118048571D02*
X162560000Y-118048571D01*
X162560000Y-118572380D02*
X162560000Y-117572380D01*
X163036190Y-117572380D01*
X163560000Y-117572380D02*
X163560000Y-117810476D01*
X163321904Y-117715238D02*
X163560000Y-117810476D01*
X163798095Y-117715238D01*
X163417142Y-118000952D02*
X163560000Y-117810476D01*
X163702857Y-118000952D01*
X164321904Y-117572380D02*
X164321904Y-117810476D01*
X164083809Y-117715238D02*
X164321904Y-117810476D01*
X164560000Y-117715238D01*
X164179047Y-118000952D02*
X164321904Y-117810476D01*
X164464761Y-118000952D01*
X44386666Y-118572380D02*
X44053333Y-118096190D01*
X43815238Y-118572380D02*
X43815238Y-117572380D01*
X44196190Y-117572380D01*
X44291428Y-117620000D01*
X44339047Y-117667619D01*
X44386666Y-117762857D01*
X44386666Y-117905714D01*
X44339047Y-118000952D01*
X44291428Y-118048571D01*
X44196190Y-118096190D01*
X43815238Y-118096190D01*
X44815238Y-118048571D02*
X45148571Y-118048571D01*
X45291428Y-118572380D02*
X44815238Y-118572380D01*
X44815238Y-117572380D01*
X45291428Y-117572380D01*
X46053333Y-118048571D02*
X45720000Y-118048571D01*
X45720000Y-118572380D02*
X45720000Y-117572380D01*
X46196190Y-117572380D01*
X46720000Y-117572380D02*
X46720000Y-117810476D01*
X46481904Y-117715238D02*
X46720000Y-117810476D01*
X46958095Y-117715238D01*
X46577142Y-118000952D02*
X46720000Y-117810476D01*
X46862857Y-118000952D01*
X47481904Y-117572380D02*
X47481904Y-117810476D01*
X47243809Y-117715238D02*
X47481904Y-117810476D01*
X47720000Y-117715238D01*
X47339047Y-118000952D02*
X47481904Y-117810476D01*
X47624761Y-118000952D01*
%TO.C,D5*%
X141501904Y-75692380D02*
X141501904Y-74692380D01*
X141740000Y-74692380D01*
X141882857Y-74740000D01*
X141978095Y-74835238D01*
X142025714Y-74930476D01*
X142073333Y-75120952D01*
X142073333Y-75263809D01*
X142025714Y-75454285D01*
X141978095Y-75549523D01*
X141882857Y-75644761D01*
X141740000Y-75692380D01*
X141501904Y-75692380D01*
X142978095Y-74692380D02*
X142501904Y-74692380D01*
X142454285Y-75168571D01*
X142501904Y-75120952D01*
X142597142Y-75073333D01*
X142835238Y-75073333D01*
X142930476Y-75120952D01*
X142978095Y-75168571D01*
X143025714Y-75263809D01*
X143025714Y-75501904D01*
X142978095Y-75597142D01*
X142930476Y-75644761D01*
X142835238Y-75692380D01*
X142597142Y-75692380D01*
X142501904Y-75644761D01*
X142454285Y-75597142D01*
X138375714Y-77592380D02*
X137804285Y-77592380D01*
X138090000Y-77592380D02*
X138090000Y-76592380D01*
X137994761Y-76735238D01*
X137899523Y-76830476D01*
X137804285Y-76878095D01*
%TO.C,*%
%TO.C,D3*%
X113651904Y-59832380D02*
X113651904Y-58832380D01*
X113890000Y-58832380D01*
X114032857Y-58880000D01*
X114128095Y-58975238D01*
X114175714Y-59070476D01*
X114223333Y-59260952D01*
X114223333Y-59403809D01*
X114175714Y-59594285D01*
X114128095Y-59689523D01*
X114032857Y-59784761D01*
X113890000Y-59832380D01*
X113651904Y-59832380D01*
X114556666Y-58832380D02*
X115175714Y-58832380D01*
X114842380Y-59213333D01*
X114985238Y-59213333D01*
X115080476Y-59260952D01*
X115128095Y-59308571D01*
X115175714Y-59403809D01*
X115175714Y-59641904D01*
X115128095Y-59737142D01*
X115080476Y-59784761D01*
X114985238Y-59832380D01*
X114699523Y-59832380D01*
X114604285Y-59784761D01*
X114556666Y-59737142D01*
X118825714Y-57932380D02*
X118254285Y-57932380D01*
X118540000Y-57932380D02*
X118540000Y-56932380D01*
X118444761Y-57075238D01*
X118349523Y-57170476D01*
X118254285Y-57218095D01*
%TO.C,D9*%
X60311904Y-105552380D02*
X60311904Y-104552380D01*
X60550000Y-104552380D01*
X60692857Y-104600000D01*
X60788095Y-104695238D01*
X60835714Y-104790476D01*
X60883333Y-104980952D01*
X60883333Y-105123809D01*
X60835714Y-105314285D01*
X60788095Y-105409523D01*
X60692857Y-105504761D01*
X60550000Y-105552380D01*
X60311904Y-105552380D01*
X61359523Y-105552380D02*
X61550000Y-105552380D01*
X61645238Y-105504761D01*
X61692857Y-105457142D01*
X61788095Y-105314285D01*
X61835714Y-105123809D01*
X61835714Y-104742857D01*
X61788095Y-104647619D01*
X61740476Y-104600000D01*
X61645238Y-104552380D01*
X61454761Y-104552380D01*
X61359523Y-104600000D01*
X61311904Y-104647619D01*
X61264285Y-104742857D01*
X61264285Y-104980952D01*
X61311904Y-105076190D01*
X61359523Y-105123809D01*
X61454761Y-105171428D01*
X61645238Y-105171428D01*
X61740476Y-105123809D01*
X61788095Y-105076190D01*
X61835714Y-104980952D01*
X65485714Y-103652380D02*
X64914285Y-103652380D01*
X65200000Y-103652380D02*
X65200000Y-102652380D01*
X65104761Y-102795238D01*
X65009523Y-102890476D01*
X64914285Y-102938095D01*
%TO.C,D1*%
X60311904Y-59832380D02*
X60311904Y-58832380D01*
X60550000Y-58832380D01*
X60692857Y-58880000D01*
X60788095Y-58975238D01*
X60835714Y-59070476D01*
X60883333Y-59260952D01*
X60883333Y-59403809D01*
X60835714Y-59594285D01*
X60788095Y-59689523D01*
X60692857Y-59784761D01*
X60550000Y-59832380D01*
X60311904Y-59832380D01*
X61835714Y-59832380D02*
X61264285Y-59832380D01*
X61550000Y-59832380D02*
X61550000Y-58832380D01*
X61454761Y-58975238D01*
X61359523Y-59070476D01*
X61264285Y-59118095D01*
X65485714Y-57932380D02*
X64914285Y-57932380D01*
X65200000Y-57932380D02*
X65200000Y-56932380D01*
X65104761Y-57075238D01*
X65009523Y-57170476D01*
X64914285Y-57218095D01*
%TO.C,D4*%
X141591904Y-59832380D02*
X141591904Y-58832380D01*
X141830000Y-58832380D01*
X141972857Y-58880000D01*
X142068095Y-58975238D01*
X142115714Y-59070476D01*
X142163333Y-59260952D01*
X142163333Y-59403809D01*
X142115714Y-59594285D01*
X142068095Y-59689523D01*
X141972857Y-59784761D01*
X141830000Y-59832380D01*
X141591904Y-59832380D01*
X143020476Y-59165714D02*
X143020476Y-59832380D01*
X142782380Y-58784761D02*
X142544285Y-59499047D01*
X143163333Y-59499047D01*
X146765714Y-57932380D02*
X146194285Y-57932380D01*
X146480000Y-57932380D02*
X146480000Y-56932380D01*
X146384761Y-57075238D01*
X146289523Y-57170476D01*
X146194285Y-57218095D01*
%TO.C,*%
%TO.C,SW2*%
X97726666Y-31665761D02*
X97869523Y-31713380D01*
X98107619Y-31713380D01*
X98202857Y-31665761D01*
X98250476Y-31618142D01*
X98298095Y-31522904D01*
X98298095Y-31427666D01*
X98250476Y-31332428D01*
X98202857Y-31284809D01*
X98107619Y-31237190D01*
X97917142Y-31189571D01*
X97821904Y-31141952D01*
X97774285Y-31094333D01*
X97726666Y-30999095D01*
X97726666Y-30903857D01*
X97774285Y-30808619D01*
X97821904Y-30761000D01*
X97917142Y-30713380D01*
X98155238Y-30713380D01*
X98298095Y-30761000D01*
X98631428Y-30713380D02*
X98869523Y-31713380D01*
X99060000Y-30999095D01*
X99250476Y-31713380D01*
X99488571Y-30713380D01*
X99821904Y-30808619D02*
X99869523Y-30761000D01*
X99964761Y-30713380D01*
X100202857Y-30713380D01*
X100298095Y-30761000D01*
X100345714Y-30808619D01*
X100393333Y-30903857D01*
X100393333Y-30999095D01*
X100345714Y-31141952D01*
X99774285Y-31713380D01*
X100393333Y-31713380D01*
%TO.C,*%
%TO.C,R1*%
X55232380Y-47156666D02*
X54756190Y-47490000D01*
X55232380Y-47728095D02*
X54232380Y-47728095D01*
X54232380Y-47347142D01*
X54280000Y-47251904D01*
X54327619Y-47204285D01*
X54422857Y-47156666D01*
X54565714Y-47156666D01*
X54660952Y-47204285D01*
X54708571Y-47251904D01*
X54756190Y-47347142D01*
X54756190Y-47728095D01*
X55232380Y-46204285D02*
X55232380Y-46775714D01*
X55232380Y-46490000D02*
X54232380Y-46490000D01*
X54375238Y-46585238D01*
X54470476Y-46680476D01*
X54518095Y-46775714D01*
%TO.C,R2*%
X49517380Y-47156666D02*
X49041190Y-47490000D01*
X49517380Y-47728095D02*
X48517380Y-47728095D01*
X48517380Y-47347142D01*
X48565000Y-47251904D01*
X48612619Y-47204285D01*
X48707857Y-47156666D01*
X48850714Y-47156666D01*
X48945952Y-47204285D01*
X48993571Y-47251904D01*
X49041190Y-47347142D01*
X49041190Y-47728095D01*
X48612619Y-46775714D02*
X48565000Y-46728095D01*
X48517380Y-46632857D01*
X48517380Y-46394761D01*
X48565000Y-46299523D01*
X48612619Y-46251904D01*
X48707857Y-46204285D01*
X48803095Y-46204285D01*
X48945952Y-46251904D01*
X49517380Y-46823333D01*
X49517380Y-46204285D01*
%TO.C,D8*%
X60221904Y-75692380D02*
X60221904Y-74692380D01*
X60460000Y-74692380D01*
X60602857Y-74740000D01*
X60698095Y-74835238D01*
X60745714Y-74930476D01*
X60793333Y-75120952D01*
X60793333Y-75263809D01*
X60745714Y-75454285D01*
X60698095Y-75549523D01*
X60602857Y-75644761D01*
X60460000Y-75692380D01*
X60221904Y-75692380D01*
X61364761Y-75120952D02*
X61269523Y-75073333D01*
X61221904Y-75025714D01*
X61174285Y-74930476D01*
X61174285Y-74882857D01*
X61221904Y-74787619D01*
X61269523Y-74740000D01*
X61364761Y-74692380D01*
X61555238Y-74692380D01*
X61650476Y-74740000D01*
X61698095Y-74787619D01*
X61745714Y-74882857D01*
X61745714Y-74930476D01*
X61698095Y-75025714D01*
X61650476Y-75073333D01*
X61555238Y-75120952D01*
X61364761Y-75120952D01*
X61269523Y-75168571D01*
X61221904Y-75216190D01*
X61174285Y-75311428D01*
X61174285Y-75501904D01*
X61221904Y-75597142D01*
X61269523Y-75644761D01*
X61364761Y-75692380D01*
X61555238Y-75692380D01*
X61650476Y-75644761D01*
X61698095Y-75597142D01*
X61745714Y-75501904D01*
X61745714Y-75311428D01*
X61698095Y-75216190D01*
X61650476Y-75168571D01*
X61555238Y-75120952D01*
X57095714Y-77592380D02*
X56524285Y-77592380D01*
X56810000Y-77592380D02*
X56810000Y-76592380D01*
X56714761Y-76735238D01*
X56619523Y-76830476D01*
X56524285Y-76878095D01*
%TO.C,*%
%TO.C,D11*%
X113175714Y-105552380D02*
X113175714Y-104552380D01*
X113413809Y-104552380D01*
X113556666Y-104600000D01*
X113651904Y-104695238D01*
X113699523Y-104790476D01*
X113747142Y-104980952D01*
X113747142Y-105123809D01*
X113699523Y-105314285D01*
X113651904Y-105409523D01*
X113556666Y-105504761D01*
X113413809Y-105552380D01*
X113175714Y-105552380D01*
X114699523Y-105552380D02*
X114128095Y-105552380D01*
X114413809Y-105552380D02*
X114413809Y-104552380D01*
X114318571Y-104695238D01*
X114223333Y-104790476D01*
X114128095Y-104838095D01*
X115651904Y-105552380D02*
X115080476Y-105552380D01*
X115366190Y-105552380D02*
X115366190Y-104552380D01*
X115270952Y-104695238D01*
X115175714Y-104790476D01*
X115080476Y-104838095D01*
X118825714Y-103652380D02*
X118254285Y-103652380D01*
X118540000Y-103652380D02*
X118540000Y-102652380D01*
X118444761Y-102795238D01*
X118349523Y-102890476D01*
X118254285Y-102938095D01*
%TO.C,D2*%
X85711904Y-59832380D02*
X85711904Y-58832380D01*
X85950000Y-58832380D01*
X86092857Y-58880000D01*
X86188095Y-58975238D01*
X86235714Y-59070476D01*
X86283333Y-59260952D01*
X86283333Y-59403809D01*
X86235714Y-59594285D01*
X86188095Y-59689523D01*
X86092857Y-59784761D01*
X85950000Y-59832380D01*
X85711904Y-59832380D01*
X86664285Y-58927619D02*
X86711904Y-58880000D01*
X86807142Y-58832380D01*
X87045238Y-58832380D01*
X87140476Y-58880000D01*
X87188095Y-58927619D01*
X87235714Y-59022857D01*
X87235714Y-59118095D01*
X87188095Y-59260952D01*
X86616666Y-59832380D01*
X87235714Y-59832380D01*
X90885714Y-57932380D02*
X90314285Y-57932380D01*
X90600000Y-57932380D02*
X90600000Y-56932380D01*
X90504761Y-57075238D01*
X90409523Y-57170476D01*
X90314285Y-57218095D01*
%TO.C,D12*%
X141115714Y-105552380D02*
X141115714Y-104552380D01*
X141353809Y-104552380D01*
X141496666Y-104600000D01*
X141591904Y-104695238D01*
X141639523Y-104790476D01*
X141687142Y-104980952D01*
X141687142Y-105123809D01*
X141639523Y-105314285D01*
X141591904Y-105409523D01*
X141496666Y-105504761D01*
X141353809Y-105552380D01*
X141115714Y-105552380D01*
X142639523Y-105552380D02*
X142068095Y-105552380D01*
X142353809Y-105552380D02*
X142353809Y-104552380D01*
X142258571Y-104695238D01*
X142163333Y-104790476D01*
X142068095Y-104838095D01*
X143020476Y-104647619D02*
X143068095Y-104600000D01*
X143163333Y-104552380D01*
X143401428Y-104552380D01*
X143496666Y-104600000D01*
X143544285Y-104647619D01*
X143591904Y-104742857D01*
X143591904Y-104838095D01*
X143544285Y-104980952D01*
X142972857Y-105552380D01*
X143591904Y-105552380D01*
X146765714Y-103652380D02*
X146194285Y-103652380D01*
X146480000Y-103652380D02*
X146480000Y-102652380D01*
X146384761Y-102795238D01*
X146289523Y-102890476D01*
X146194285Y-102938095D01*
%TO.C,*%
%TO.C,SW1*%
X59886666Y-32339761D02*
X60029523Y-32387380D01*
X60267619Y-32387380D01*
X60362857Y-32339761D01*
X60410476Y-32292142D01*
X60458095Y-32196904D01*
X60458095Y-32101666D01*
X60410476Y-32006428D01*
X60362857Y-31958809D01*
X60267619Y-31911190D01*
X60077142Y-31863571D01*
X59981904Y-31815952D01*
X59934285Y-31768333D01*
X59886666Y-31673095D01*
X59886666Y-31577857D01*
X59934285Y-31482619D01*
X59981904Y-31435000D01*
X60077142Y-31387380D01*
X60315238Y-31387380D01*
X60458095Y-31435000D01*
X60791428Y-31387380D02*
X61029523Y-32387380D01*
X61220000Y-31673095D01*
X61410476Y-32387380D01*
X61648571Y-31387380D01*
X62553333Y-32387380D02*
X61981904Y-32387380D01*
X62267619Y-32387380D02*
X62267619Y-31387380D01*
X62172380Y-31530238D01*
X62077142Y-31625476D01*
X61981904Y-31673095D01*
%TO.C,D10*%
X85235714Y-105552380D02*
X85235714Y-104552380D01*
X85473809Y-104552380D01*
X85616666Y-104600000D01*
X85711904Y-104695238D01*
X85759523Y-104790476D01*
X85807142Y-104980952D01*
X85807142Y-105123809D01*
X85759523Y-105314285D01*
X85711904Y-105409523D01*
X85616666Y-105504761D01*
X85473809Y-105552380D01*
X85235714Y-105552380D01*
X86759523Y-105552380D02*
X86188095Y-105552380D01*
X86473809Y-105552380D02*
X86473809Y-104552380D01*
X86378571Y-104695238D01*
X86283333Y-104790476D01*
X86188095Y-104838095D01*
X87378571Y-104552380D02*
X87473809Y-104552380D01*
X87569047Y-104600000D01*
X87616666Y-104647619D01*
X87664285Y-104742857D01*
X87711904Y-104933333D01*
X87711904Y-105171428D01*
X87664285Y-105361904D01*
X87616666Y-105457142D01*
X87569047Y-105504761D01*
X87473809Y-105552380D01*
X87378571Y-105552380D01*
X87283333Y-105504761D01*
X87235714Y-105457142D01*
X87188095Y-105361904D01*
X87140476Y-105171428D01*
X87140476Y-104933333D01*
X87188095Y-104742857D01*
X87235714Y-104647619D01*
X87283333Y-104600000D01*
X87378571Y-104552380D01*
X90885714Y-103652380D02*
X90314285Y-103652380D01*
X90600000Y-103652380D02*
X90600000Y-102652380D01*
X90504761Y-102795238D01*
X90409523Y-102890476D01*
X90314285Y-102938095D01*
%TO.C,D6*%
X113561904Y-75692380D02*
X113561904Y-74692380D01*
X113800000Y-74692380D01*
X113942857Y-74740000D01*
X114038095Y-74835238D01*
X114085714Y-74930476D01*
X114133333Y-75120952D01*
X114133333Y-75263809D01*
X114085714Y-75454285D01*
X114038095Y-75549523D01*
X113942857Y-75644761D01*
X113800000Y-75692380D01*
X113561904Y-75692380D01*
X114990476Y-74692380D02*
X114800000Y-74692380D01*
X114704761Y-74740000D01*
X114657142Y-74787619D01*
X114561904Y-74930476D01*
X114514285Y-75120952D01*
X114514285Y-75501904D01*
X114561904Y-75597142D01*
X114609523Y-75644761D01*
X114704761Y-75692380D01*
X114895238Y-75692380D01*
X114990476Y-75644761D01*
X115038095Y-75597142D01*
X115085714Y-75501904D01*
X115085714Y-75263809D01*
X115038095Y-75168571D01*
X114990476Y-75120952D01*
X114895238Y-75073333D01*
X114704761Y-75073333D01*
X114609523Y-75120952D01*
X114561904Y-75168571D01*
X114514285Y-75263809D01*
X110435714Y-77592380D02*
X109864285Y-77592380D01*
X110150000Y-77592380D02*
X110150000Y-76592380D01*
X110054761Y-76735238D01*
X109959523Y-76830476D01*
X109864285Y-76878095D01*
%TO.C,*%
%TO.C,D7*%
X85621904Y-75692380D02*
X85621904Y-74692380D01*
X85860000Y-74692380D01*
X86002857Y-74740000D01*
X86098095Y-74835238D01*
X86145714Y-74930476D01*
X86193333Y-75120952D01*
X86193333Y-75263809D01*
X86145714Y-75454285D01*
X86098095Y-75549523D01*
X86002857Y-75644761D01*
X85860000Y-75692380D01*
X85621904Y-75692380D01*
X86526666Y-74692380D02*
X87193333Y-74692380D01*
X86764761Y-75692380D01*
X82495714Y-77592380D02*
X81924285Y-77592380D01*
X82210000Y-77592380D02*
X82210000Y-76592380D01*
X82114761Y-76735238D01*
X82019523Y-76830476D01*
X81924285Y-76878095D01*
D11*
%TO.C,U1*%
X150775000Y-29445000D02*
X118275000Y-29445000D01*
X118275000Y-29445000D02*
X118275000Y-46945000D01*
X118275000Y-46945000D02*
X150775000Y-46945000D01*
X150775000Y-46945000D02*
X150775000Y-29445000D01*
%TO.C,*%
X68035000Y-118745000D02*
X54065000Y-118745000D01*
X54065000Y-104775000D02*
X68035000Y-104775000D01*
X68035000Y-104775000D02*
X68035000Y-118745000D01*
X54065000Y-118745000D02*
X54065000Y-104775000D01*
%TO.C,D5*%
X138590000Y-75990000D02*
X145890000Y-75990000D01*
X145890000Y-81490000D02*
X145890000Y-80340000D01*
X138590000Y-81490000D02*
X145890000Y-81490000D01*
%TO.C,*%
X121375000Y-73025000D02*
X107405000Y-73025000D01*
X107405000Y-73025000D02*
X107405000Y-59055000D01*
X121375000Y-59055000D02*
X121375000Y-73025000D01*
X107405000Y-59055000D02*
X121375000Y-59055000D01*
%TO.C,D3*%
X118040000Y-58630000D02*
X110740000Y-58630000D01*
X118040000Y-53130000D02*
X110740000Y-53130000D01*
X110740000Y-53130000D02*
X110740000Y-54280000D01*
%TO.C,D9*%
X64700000Y-104350000D02*
X57400000Y-104350000D01*
X57400000Y-98850000D02*
X57400000Y-100000000D01*
X64700000Y-98850000D02*
X57400000Y-98850000D01*
%TO.C,D1*%
X64700000Y-58630000D02*
X57400000Y-58630000D01*
X64700000Y-53130000D02*
X57400000Y-53130000D01*
X57400000Y-53130000D02*
X57400000Y-54280000D01*
%TO.C,D4*%
X145980000Y-53130000D02*
X138680000Y-53130000D01*
X145980000Y-58630000D02*
X138680000Y-58630000D01*
X138680000Y-53130000D02*
X138680000Y-54280000D01*
%TO.C,*%
X54065000Y-81915000D02*
X68035000Y-81915000D01*
X54065000Y-95885000D02*
X54065000Y-81915000D01*
X68035000Y-81915000D02*
X68035000Y-95885000D01*
X68035000Y-95885000D02*
X54065000Y-95885000D01*
%TO.C,SW2*%
X106045000Y-46120000D02*
X92075000Y-46120000D01*
X92075000Y-32150000D02*
X106045000Y-32150000D01*
X92075000Y-46120000D02*
X92075000Y-32150000D01*
X106045000Y-32150000D02*
X106045000Y-46120000D01*
%TO.C,*%
X135345000Y-95885000D02*
X135345000Y-81915000D01*
X135345000Y-81915000D02*
X149315000Y-81915000D01*
X149315000Y-95885000D02*
X135345000Y-95885000D01*
X149315000Y-81915000D02*
X149315000Y-95885000D01*
X68035000Y-73025000D02*
X54065000Y-73025000D01*
X54065000Y-73025000D02*
X54065000Y-59055000D01*
X54065000Y-59055000D02*
X68035000Y-59055000D01*
X68035000Y-59055000D02*
X68035000Y-73025000D01*
%TO.C,R1*%
X53875000Y-43720000D02*
X53875000Y-50260000D01*
X55245000Y-51030000D02*
X55245000Y-50260000D01*
X53875000Y-50260000D02*
X56615000Y-50260000D01*
X55245000Y-42950000D02*
X55245000Y-43720000D01*
X56615000Y-43720000D02*
X53875000Y-43720000D01*
X56615000Y-50260000D02*
X56615000Y-43720000D01*
%TO.C,R2*%
X50065000Y-43720000D02*
X50065000Y-50260000D01*
X51435000Y-51030000D02*
X51435000Y-50260000D01*
X50065000Y-50260000D02*
X52805000Y-50260000D01*
X51435000Y-42950000D02*
X51435000Y-43720000D01*
X52805000Y-43720000D02*
X50065000Y-43720000D01*
X52805000Y-50260000D02*
X52805000Y-43720000D01*
%TO.C,D8*%
X57310000Y-81490000D02*
X64610000Y-81490000D01*
X64610000Y-81490000D02*
X64610000Y-80340000D01*
X57310000Y-75990000D02*
X64610000Y-75990000D01*
%TO.C,*%
X107405000Y-81915000D02*
X121375000Y-81915000D01*
X121375000Y-81915000D02*
X121375000Y-95885000D01*
X121375000Y-95885000D02*
X107405000Y-95885000D01*
X107405000Y-95885000D02*
X107405000Y-81915000D01*
X93435000Y-59055000D02*
X93435000Y-73025000D01*
X79465000Y-73025000D02*
X79465000Y-59055000D01*
X79465000Y-59055000D02*
X93435000Y-59055000D01*
X93435000Y-73025000D02*
X79465000Y-73025000D01*
%TO.C,D11*%
X118040000Y-98850000D02*
X110740000Y-98850000D01*
X118040000Y-104350000D02*
X110740000Y-104350000D01*
X110740000Y-98850000D02*
X110740000Y-100000000D01*
%TO.C,D2*%
X90100000Y-58630000D02*
X82800000Y-58630000D01*
X90100000Y-53130000D02*
X82800000Y-53130000D01*
X82800000Y-53130000D02*
X82800000Y-54280000D01*
%TO.C,D12*%
X138680000Y-98850000D02*
X138680000Y-100000000D01*
X145980000Y-98850000D02*
X138680000Y-98850000D01*
X145980000Y-104350000D02*
X138680000Y-104350000D01*
%TO.C,*%
X93435000Y-118745000D02*
X79465000Y-118745000D01*
X79465000Y-118745000D02*
X79465000Y-104775000D01*
X93435000Y-104775000D02*
X93435000Y-118745000D01*
X79465000Y-104775000D02*
X93435000Y-104775000D01*
X149315000Y-118745000D02*
X135345000Y-118745000D01*
X135345000Y-118745000D02*
X135345000Y-104775000D01*
X135345000Y-104775000D02*
X149315000Y-104775000D01*
X149315000Y-104775000D02*
X149315000Y-118745000D01*
%TO.C,SW1*%
X72020000Y-42635000D02*
X72020000Y-45035000D01*
X65920000Y-38635000D02*
X65920000Y-39635000D01*
X72020000Y-37835000D02*
X72020000Y-40435000D01*
X58120000Y-35035000D02*
X58720000Y-35035000D01*
X67920000Y-33235000D02*
X72020000Y-33235000D01*
X72020000Y-45035000D02*
X67920000Y-45035000D01*
X58420000Y-35335000D02*
X58120000Y-35035000D01*
X65420000Y-39135000D02*
X66420000Y-39135000D01*
X72020000Y-33235000D02*
X72020000Y-35635000D01*
X59820000Y-33235000D02*
X59820000Y-45035000D01*
X63920000Y-45035000D02*
X59820000Y-45035000D01*
X58720000Y-35035000D02*
X58420000Y-35335000D01*
X63920000Y-33235000D02*
X59820000Y-33235000D01*
X68920000Y-39135000D02*
G75*
G03*
X68920000Y-39135000I-3000000J0D01*
G01*
%TO.C,D10*%
X90100000Y-104350000D02*
X82800000Y-104350000D01*
X82800000Y-98850000D02*
X82800000Y-100000000D01*
X90100000Y-98850000D02*
X82800000Y-98850000D01*
%TO.C,D6*%
X110650000Y-81490000D02*
X117950000Y-81490000D01*
X117950000Y-81490000D02*
X117950000Y-80340000D01*
X110650000Y-75990000D02*
X117950000Y-75990000D01*
%TO.C,*%
X149315000Y-59055000D02*
X149315000Y-73025000D01*
X135345000Y-73025000D02*
X135345000Y-59055000D01*
X135345000Y-59055000D02*
X149315000Y-59055000D01*
X149315000Y-73025000D02*
X135345000Y-73025000D01*
X107405000Y-118745000D02*
X107405000Y-104775000D01*
X121375000Y-104775000D02*
X121375000Y-118745000D01*
X107405000Y-104775000D02*
X121375000Y-104775000D01*
X121375000Y-118745000D02*
X107405000Y-118745000D01*
X93435000Y-95885000D02*
X79465000Y-95885000D01*
X93435000Y-81915000D02*
X93435000Y-95885000D01*
X79465000Y-81915000D02*
X93435000Y-81915000D01*
X79465000Y-95885000D02*
X79465000Y-81915000D01*
%TO.C,D7*%
X82710000Y-75990000D02*
X90010000Y-75990000D01*
X90010000Y-81490000D02*
X90010000Y-80340000D01*
X82710000Y-81490000D02*
X90010000Y-81490000D01*
%TD*%
M02*
