M48
; DRILL file {KiCad (6.0.0)} date Wed Feb  9 16:15:37 2022
; FORMAT={-:-/ absolute / inch / decimal}
; #@! TF.CreationDate,2022-02-09T16:15:37+01:00
; #@! TF.GenerationSoftware,Kicad,Pcbnew,(6.0.0)
; #@! TF.FileFunction,Plated,1,2,PTH
FMAT,2
INCH
; #@! TA.AperFunction,Plated,PTH,ViaDrill
T1C0.0157
; #@! TA.AperFunction,Plated,PTH,ComponentDrill
T2C0.0315
; #@! TA.AperFunction,Plated,PTH,ComponentDrill
T3C0.0394
; #@! TA.AperFunction,Plated,PTH,ComponentDrill
T4C0.0472
; #@! TA.AperFunction,Plated,PTH,ComponentDrill
T5C0.0591
; #@! TA.AperFunction,Plated,PTH,ComponentDrill
T6C0.1260
%
G90
G05
T1
X3.15Y-1.55
X3.15Y-1.6
X5.075Y-2.324
X5.1545Y-2.2955
T2
X2.025Y-1.65
X2.025Y-2.05
X2.175Y-1.65
X2.175Y-2.05
T3
X2.3Y-1.4423
X2.3Y-1.5407
X2.3Y-1.6392
X2.8709Y-1.4423
X2.8709Y-1.6392
T4
X4.7077Y-1.2183
X4.7077Y-1.803
X4.8077Y-1.2183
X4.8077Y-1.803
X4.9077Y-1.2183
X4.9077Y-1.803
X5.0077Y-1.2183
X5.0077Y-1.803
X5.1077Y-1.2183
X5.1077Y-1.803
X5.2077Y-1.2183
X5.2077Y-1.803
X5.3077Y-1.2183
X5.3077Y-1.803
X5.4077Y-1.2183
X5.4077Y-1.803
X5.5077Y-1.2183
X5.5077Y-1.803
X5.6077Y-1.2183
X5.6077Y-1.803
X5.7077Y-1.2183
X5.7077Y-1.803
X5.8077Y-1.2183
X5.8077Y-1.803
T5
X2.2535Y-2.5
X2.2535Y-3.4
X2.2535Y-4.3
X2.5035Y-2.4
X2.5035Y-3.3
X2.5035Y-4.2
X3.2535Y-2.5
X3.2535Y-3.4
X3.2535Y-4.3
X3.5035Y-2.4
X3.5035Y-3.3
X3.5035Y-4.2
X3.75Y-1.4407
X4.0Y-1.3407
X4.3535Y-2.5
X4.3535Y-3.4
X4.3535Y-4.3
X4.6035Y-2.4
X4.6035Y-3.3
X4.6035Y-4.2
X5.4535Y-2.5
X5.4535Y-3.4
X5.4535Y-4.3
X5.7035Y-2.4
X5.7035Y-3.3
X5.7035Y-4.2
T6
X1.8Y-1.1
X1.8Y-4.8
X6.4Y-1.1
X6.4Y-4.8
T5
G00X2.5697Y-1.3203
M15
G01X2.6209Y-1.3203
M16
G05
G00X2.5697Y-1.7612
M15
G01X2.6209Y-1.7612
M16
G05
T0
M30
