M48
; DRILL file {KiCad (6.0.0)} date Wed Feb  9 16:15:37 2022
; FORMAT={-:-/ absolute / inch / decimal}
; #@! TF.CreationDate,2022-02-09T16:15:37+01:00
; #@! TF.GenerationSoftware,Kicad,Pcbnew,(6.0.0)
; #@! TF.FileFunction,NonPlated,1,2,NPTH
FMAT,2
INCH
; #@! TA.AperFunction,NonPlated,NPTH,ComponentDrill
T1C0.0669
; #@! TA.AperFunction,NonPlated,NPTH,ComponentDrill
T2C0.1575
%
G90
G05
T1
X2.2035Y-2.6
X2.2035Y-3.5
X2.2035Y-4.4
X2.6035Y-2.6
X2.6035Y-3.5
X2.6035Y-4.4
X3.2035Y-2.6
X3.2035Y-3.5
X3.2035Y-4.4
X3.6035Y-2.6
X3.6035Y-3.5
X3.6035Y-4.4
X3.7Y-1.5407
X4.1Y-1.5407
X4.3035Y-2.6
X4.3035Y-3.5
X4.3035Y-4.4
X4.7035Y-2.6
X4.7035Y-3.5
X4.7035Y-4.4
X5.4035Y-2.6
X5.4035Y-3.5
X5.4035Y-4.4
X5.8035Y-2.6
X5.8035Y-3.5
X5.8035Y-4.4
T2
X2.4035Y-2.6
X2.4035Y-3.5
X2.4035Y-4.4
X3.4035Y-2.6
X3.4035Y-3.5
X3.4035Y-4.4
X3.9Y-1.5407
X4.5035Y-2.6
X4.5035Y-3.5
X4.5035Y-4.4
X5.6035Y-2.6
X5.6035Y-3.5
X5.6035Y-4.4
T0
M30
