%TF.GenerationSoftware,KiCad,Pcbnew,(6.0.0)*%
%TF.CreationDate,2022-02-22T09:03:57+01:00*%
%TF.ProjectId,hotkeyboard,686f746b-6579-4626-9f61-72642e6b6963,rev?*%
%TF.SameCoordinates,Original*%
%TF.FileFunction,Soldermask,Bot*%
%TF.FilePolarity,Negative*%
%FSLAX46Y46*%
G04 Gerber Fmt 4.6, Leading zero omitted, Abs format (unit mm)*
G04 Created by KiCad (PCBNEW (6.0.0)) date 2022-02-22 09:03:57*
%MOMM*%
%LPD*%
G01*
G04 APERTURE LIST*
%ADD10C,0.150000*%
%ADD11C,5.600000*%
%ADD12C,1.700000*%
%ADD13C,4.000000*%
%ADD14C,2.200000*%
%ADD15C,2.000000*%
%ADD16C,1.600000*%
%ADD17O,1.600000X1.600000*%
%ADD18R,2.000000X2.000000*%
%ADD19R,3.200000X2.000000*%
G04 APERTURE END LIST*
D10*
X43054523Y-35132380D02*
X43673571Y-35132380D01*
X43340238Y-35513333D01*
X43483095Y-35513333D01*
X43578333Y-35560952D01*
X43625952Y-35608571D01*
X43673571Y-35703809D01*
X43673571Y-35941904D01*
X43625952Y-36037142D01*
X43578333Y-36084761D01*
X43483095Y-36132380D01*
X43197380Y-36132380D01*
X43102142Y-36084761D01*
X43054523Y-36037142D01*
X44149761Y-36084761D02*
X44149761Y-36132380D01*
X44102142Y-36227619D01*
X44054523Y-36275238D01*
X44768809Y-35132380D02*
X44864047Y-35132380D01*
X44959285Y-35180000D01*
X45006904Y-35227619D01*
X45054523Y-35322857D01*
X45102142Y-35513333D01*
X45102142Y-35751428D01*
X45054523Y-35941904D01*
X45006904Y-36037142D01*
X44959285Y-36084761D01*
X44864047Y-36132380D01*
X44768809Y-36132380D01*
X44673571Y-36084761D01*
X44625952Y-36037142D01*
X44578333Y-35941904D01*
X44530714Y-35751428D01*
X44530714Y-35513333D01*
X44578333Y-35322857D01*
X44625952Y-35227619D01*
X44673571Y-35180000D01*
X44768809Y-35132380D01*
X46006904Y-35132380D02*
X45530714Y-35132380D01*
X45483095Y-35608571D01*
X45530714Y-35560952D01*
X45625952Y-35513333D01*
X45864047Y-35513333D01*
X45959285Y-35560952D01*
X46006904Y-35608571D01*
X46054523Y-35703809D01*
X46054523Y-35941904D01*
X46006904Y-36037142D01*
X45959285Y-36084761D01*
X45864047Y-36132380D01*
X45625952Y-36132380D01*
X45530714Y-36084761D01*
X45483095Y-36037142D01*
X46673571Y-35132380D02*
X46768809Y-35132380D01*
X46864047Y-35180000D01*
X46911666Y-35227619D01*
X46959285Y-35322857D01*
X47006904Y-35513333D01*
X47006904Y-35751428D01*
X46959285Y-35941904D01*
X46911666Y-36037142D01*
X46864047Y-36084761D01*
X46768809Y-36132380D01*
X46673571Y-36132380D01*
X46578333Y-36084761D01*
X46530714Y-36037142D01*
X46483095Y-35941904D01*
X46435476Y-35751428D01*
X46435476Y-35513333D01*
X46483095Y-35322857D01*
X46530714Y-35227619D01*
X46578333Y-35180000D01*
X46673571Y-35132380D01*
X47625952Y-35132380D02*
X47721190Y-35132380D01*
X47816428Y-35180000D01*
X47864047Y-35227619D01*
X47911666Y-35322857D01*
X47959285Y-35513333D01*
X47959285Y-35751428D01*
X47911666Y-35941904D01*
X47864047Y-36037142D01*
X47816428Y-36084761D01*
X47721190Y-36132380D01*
X47625952Y-36132380D01*
X47530714Y-36084761D01*
X47483095Y-36037142D01*
X47435476Y-35941904D01*
X47387857Y-35751428D01*
X47387857Y-35513333D01*
X47435476Y-35322857D01*
X47483095Y-35227619D01*
X47530714Y-35180000D01*
X47625952Y-35132380D01*
X49149761Y-36132380D02*
X49149761Y-35465714D01*
X49149761Y-35560952D02*
X49197380Y-35513333D01*
X49292619Y-35465714D01*
X49435476Y-35465714D01*
X49530714Y-35513333D01*
X49578333Y-35608571D01*
X49578333Y-36132380D01*
X49578333Y-35608571D02*
X49625952Y-35513333D01*
X49721190Y-35465714D01*
X49864047Y-35465714D01*
X49959285Y-35513333D01*
X50006904Y-35608571D01*
X50006904Y-36132380D01*
X50483095Y-36132380D02*
X50483095Y-35465714D01*
X50483095Y-35560952D02*
X50530714Y-35513333D01*
X50625952Y-35465714D01*
X50768809Y-35465714D01*
X50864047Y-35513333D01*
X50911666Y-35608571D01*
X50911666Y-36132380D01*
X50911666Y-35608571D02*
X50959285Y-35513333D01*
X51054523Y-35465714D01*
X51197380Y-35465714D01*
X51292619Y-35513333D01*
X51340238Y-35608571D01*
X51340238Y-36132380D01*
X45720000Y-28440000D02*
X45720000Y-37416420D01*
X48770000Y-28440000D02*
X48770000Y-37416420D01*
X45720000Y-36830000D02*
X46846504Y-37416421D01*
X45720000Y-36830000D02*
X46846504Y-36243579D01*
X48770000Y-36830000D02*
X47643496Y-36243579D01*
X48770000Y-36830000D02*
X47643496Y-37416421D01*
X32322380Y-79453809D02*
X32322380Y-79263333D01*
X32274761Y-79168095D01*
X32227142Y-79120476D01*
X32084285Y-79025238D01*
X31893809Y-78977619D01*
X31512857Y-78977619D01*
X31417619Y-79025238D01*
X31370000Y-79072857D01*
X31322380Y-79168095D01*
X31322380Y-79358571D01*
X31370000Y-79453809D01*
X31417619Y-79501428D01*
X31512857Y-79549047D01*
X31750952Y-79549047D01*
X31846190Y-79501428D01*
X31893809Y-79453809D01*
X31941428Y-79358571D01*
X31941428Y-79168095D01*
X31893809Y-79072857D01*
X31846190Y-79025238D01*
X31750952Y-78977619D01*
X31322380Y-78644285D02*
X31322380Y-78025238D01*
X31703333Y-78358571D01*
X31703333Y-78215714D01*
X31750952Y-78120476D01*
X31798571Y-78072857D01*
X31893809Y-78025238D01*
X32131904Y-78025238D01*
X32227142Y-78072857D01*
X32274761Y-78120476D01*
X32322380Y-78215714D01*
X32322380Y-78501428D01*
X32274761Y-78596666D01*
X32227142Y-78644285D01*
X32274761Y-77549047D02*
X32322380Y-77549047D01*
X32417619Y-77596666D01*
X32465238Y-77644285D01*
X32322380Y-77072857D02*
X32322380Y-76882380D01*
X32274761Y-76787142D01*
X32227142Y-76739523D01*
X32084285Y-76644285D01*
X31893809Y-76596666D01*
X31512857Y-76596666D01*
X31417619Y-76644285D01*
X31370000Y-76691904D01*
X31322380Y-76787142D01*
X31322380Y-76977619D01*
X31370000Y-77072857D01*
X31417619Y-77120476D01*
X31512857Y-77168095D01*
X31750952Y-77168095D01*
X31846190Y-77120476D01*
X31893809Y-77072857D01*
X31941428Y-76977619D01*
X31941428Y-76787142D01*
X31893809Y-76691904D01*
X31846190Y-76644285D01*
X31750952Y-76596666D01*
X31750952Y-76025238D02*
X31703333Y-76120476D01*
X31655714Y-76168095D01*
X31560476Y-76215714D01*
X31512857Y-76215714D01*
X31417619Y-76168095D01*
X31370000Y-76120476D01*
X31322380Y-76025238D01*
X31322380Y-75834761D01*
X31370000Y-75739523D01*
X31417619Y-75691904D01*
X31512857Y-75644285D01*
X31560476Y-75644285D01*
X31655714Y-75691904D01*
X31703333Y-75739523D01*
X31750952Y-75834761D01*
X31750952Y-76025238D01*
X31798571Y-76120476D01*
X31846190Y-76168095D01*
X31941428Y-76215714D01*
X32131904Y-76215714D01*
X32227142Y-76168095D01*
X32274761Y-76120476D01*
X32322380Y-76025238D01*
X32322380Y-75834761D01*
X32274761Y-75739523D01*
X32227142Y-75691904D01*
X32131904Y-75644285D01*
X31941428Y-75644285D01*
X31846190Y-75691904D01*
X31798571Y-75739523D01*
X31750952Y-75834761D01*
X31322380Y-75025238D02*
X31322380Y-74930000D01*
X31370000Y-74834761D01*
X31417619Y-74787142D01*
X31512857Y-74739523D01*
X31703333Y-74691904D01*
X31941428Y-74691904D01*
X32131904Y-74739523D01*
X32227142Y-74787142D01*
X32274761Y-74834761D01*
X32322380Y-74930000D01*
X32322380Y-75025238D01*
X32274761Y-75120476D01*
X32227142Y-75168095D01*
X32131904Y-75215714D01*
X31941428Y-75263333D01*
X31703333Y-75263333D01*
X31512857Y-75215714D01*
X31417619Y-75168095D01*
X31370000Y-75120476D01*
X31322380Y-75025238D01*
X31322380Y-74072857D02*
X31322380Y-73977619D01*
X31370000Y-73882380D01*
X31417619Y-73834761D01*
X31512857Y-73787142D01*
X31703333Y-73739523D01*
X31941428Y-73739523D01*
X32131904Y-73787142D01*
X32227142Y-73834761D01*
X32274761Y-73882380D01*
X32322380Y-73977619D01*
X32322380Y-74072857D01*
X32274761Y-74168095D01*
X32227142Y-74215714D01*
X32131904Y-74263333D01*
X31941428Y-74310952D01*
X31703333Y-74310952D01*
X31512857Y-74263333D01*
X31417619Y-74215714D01*
X31370000Y-74168095D01*
X31322380Y-74072857D01*
X32322380Y-72549047D02*
X31655714Y-72549047D01*
X31750952Y-72549047D02*
X31703333Y-72501428D01*
X31655714Y-72406190D01*
X31655714Y-72263333D01*
X31703333Y-72168095D01*
X31798571Y-72120476D01*
X32322380Y-72120476D01*
X31798571Y-72120476D02*
X31703333Y-72072857D01*
X31655714Y-71977619D01*
X31655714Y-71834761D01*
X31703333Y-71739523D01*
X31798571Y-71691904D01*
X32322380Y-71691904D01*
X32322380Y-71215714D02*
X31655714Y-71215714D01*
X31750952Y-71215714D02*
X31703333Y-71168095D01*
X31655714Y-71072857D01*
X31655714Y-70930000D01*
X31703333Y-70834761D01*
X31798571Y-70787142D01*
X32322380Y-70787142D01*
X31798571Y-70787142D02*
X31703333Y-70739523D01*
X31655714Y-70644285D01*
X31655714Y-70501428D01*
X31703333Y-70406190D01*
X31798571Y-70358571D01*
X32322380Y-70358571D01*
X45220000Y-121920000D02*
X32433580Y-121920000D01*
X45220000Y-27940000D02*
X32433580Y-27940000D01*
X33020000Y-121920000D02*
X33020000Y-80314524D01*
X33020000Y-69545476D02*
X33020000Y-27940000D01*
X33020000Y-121920000D02*
X33606421Y-120793496D01*
X33020000Y-121920000D02*
X32433579Y-120793496D01*
X33020000Y-27940000D02*
X32433579Y-29066504D01*
X33020000Y-27940000D02*
X33606421Y-29066504D01*
X31322380Y-29019047D02*
X31322380Y-29495238D01*
X31798571Y-29542857D01*
X31750952Y-29495238D01*
X31703333Y-29400000D01*
X31703333Y-29161904D01*
X31750952Y-29066666D01*
X31798571Y-29019047D01*
X31893809Y-28971428D01*
X32131904Y-28971428D01*
X32227142Y-29019047D01*
X32274761Y-29066666D01*
X32322380Y-29161904D01*
X32322380Y-29400000D01*
X32274761Y-29495238D01*
X32227142Y-29542857D01*
X32274761Y-28495238D02*
X32322380Y-28495238D01*
X32417619Y-28542857D01*
X32465238Y-28590476D01*
X31322380Y-27876190D02*
X31322380Y-27780952D01*
X31370000Y-27685714D01*
X31417619Y-27638095D01*
X31512857Y-27590476D01*
X31703333Y-27542857D01*
X31941428Y-27542857D01*
X32131904Y-27590476D01*
X32227142Y-27638095D01*
X32274761Y-27685714D01*
X32322380Y-27780952D01*
X32322380Y-27876190D01*
X32274761Y-27971428D01*
X32227142Y-28019047D01*
X32131904Y-28066666D01*
X31941428Y-28114285D01*
X31703333Y-28114285D01*
X31512857Y-28066666D01*
X31417619Y-28019047D01*
X31370000Y-27971428D01*
X31322380Y-27876190D01*
X31750952Y-26971428D02*
X31703333Y-27066666D01*
X31655714Y-27114285D01*
X31560476Y-27161904D01*
X31512857Y-27161904D01*
X31417619Y-27114285D01*
X31370000Y-27066666D01*
X31322380Y-26971428D01*
X31322380Y-26780952D01*
X31370000Y-26685714D01*
X31417619Y-26638095D01*
X31512857Y-26590476D01*
X31560476Y-26590476D01*
X31655714Y-26638095D01*
X31703333Y-26685714D01*
X31750952Y-26780952D01*
X31750952Y-26971428D01*
X31798571Y-27066666D01*
X31846190Y-27114285D01*
X31941428Y-27161904D01*
X32131904Y-27161904D01*
X32227142Y-27114285D01*
X32274761Y-27066666D01*
X32322380Y-26971428D01*
X32322380Y-26780952D01*
X32274761Y-26685714D01*
X32227142Y-26638095D01*
X32131904Y-26590476D01*
X31941428Y-26590476D01*
X31846190Y-26638095D01*
X31798571Y-26685714D01*
X31750952Y-26780952D01*
X31322380Y-25971428D02*
X31322380Y-25876190D01*
X31370000Y-25780952D01*
X31417619Y-25733333D01*
X31512857Y-25685714D01*
X31703333Y-25638095D01*
X31941428Y-25638095D01*
X32131904Y-25685714D01*
X32227142Y-25733333D01*
X32274761Y-25780952D01*
X32322380Y-25876190D01*
X32322380Y-25971428D01*
X32274761Y-26066666D01*
X32227142Y-26114285D01*
X32131904Y-26161904D01*
X31941428Y-26209523D01*
X31703333Y-26209523D01*
X31512857Y-26161904D01*
X31417619Y-26114285D01*
X31370000Y-26066666D01*
X31322380Y-25971428D01*
X31322380Y-25019047D02*
X31322380Y-24923809D01*
X31370000Y-24828571D01*
X31417619Y-24780952D01*
X31512857Y-24733333D01*
X31703333Y-24685714D01*
X31941428Y-24685714D01*
X32131904Y-24733333D01*
X32227142Y-24780952D01*
X32274761Y-24828571D01*
X32322380Y-24923809D01*
X32322380Y-25019047D01*
X32274761Y-25114285D01*
X32227142Y-25161904D01*
X32131904Y-25209523D01*
X31941428Y-25257142D01*
X31703333Y-25257142D01*
X31512857Y-25209523D01*
X31417619Y-25161904D01*
X31370000Y-25114285D01*
X31322380Y-25019047D01*
X32322380Y-23495238D02*
X31655714Y-23495238D01*
X31750952Y-23495238D02*
X31703333Y-23447619D01*
X31655714Y-23352380D01*
X31655714Y-23209523D01*
X31703333Y-23114285D01*
X31798571Y-23066666D01*
X32322380Y-23066666D01*
X31798571Y-23066666D02*
X31703333Y-23019047D01*
X31655714Y-22923809D01*
X31655714Y-22780952D01*
X31703333Y-22685714D01*
X31798571Y-22638095D01*
X32322380Y-22638095D01*
X32322380Y-22161904D02*
X31655714Y-22161904D01*
X31750952Y-22161904D02*
X31703333Y-22114285D01*
X31655714Y-22019047D01*
X31655714Y-21876190D01*
X31703333Y-21780952D01*
X31798571Y-21733333D01*
X32322380Y-21733333D01*
X31798571Y-21733333D02*
X31703333Y-21685714D01*
X31655714Y-21590476D01*
X31655714Y-21447619D01*
X31703333Y-21352380D01*
X31798571Y-21304761D01*
X32322380Y-21304761D01*
X45220000Y-27940000D02*
X32433580Y-27940000D01*
X45220000Y-22860000D02*
X32433580Y-22860000D01*
X33020000Y-27940000D02*
X33606421Y-26813496D01*
X33020000Y-27940000D02*
X32433579Y-26813496D01*
X33020000Y-22860000D02*
X32433579Y-23986504D01*
X33020000Y-22860000D02*
X33606421Y-23986504D01*
X39243452Y-16082380D02*
X38767261Y-16082380D01*
X38719642Y-16558571D01*
X38767261Y-16510952D01*
X38862500Y-16463333D01*
X39100595Y-16463333D01*
X39195833Y-16510952D01*
X39243452Y-16558571D01*
X39291071Y-16653809D01*
X39291071Y-16891904D01*
X39243452Y-16987142D01*
X39195833Y-17034761D01*
X39100595Y-17082380D01*
X38862500Y-17082380D01*
X38767261Y-17034761D01*
X38719642Y-16987142D01*
X39767261Y-17034761D02*
X39767261Y-17082380D01*
X39719642Y-17177619D01*
X39672023Y-17225238D01*
X40100595Y-16082380D02*
X40767261Y-16082380D01*
X40338690Y-17082380D01*
X41672023Y-17082380D02*
X41100595Y-17082380D01*
X41386309Y-17082380D02*
X41386309Y-16082380D01*
X41291071Y-16225238D01*
X41195833Y-16320476D01*
X41100595Y-16368095D01*
X42576785Y-16082380D02*
X42100595Y-16082380D01*
X42052976Y-16558571D01*
X42100595Y-16510952D01*
X42195833Y-16463333D01*
X42433928Y-16463333D01*
X42529166Y-16510952D01*
X42576785Y-16558571D01*
X42624404Y-16653809D01*
X42624404Y-16891904D01*
X42576785Y-16987142D01*
X42529166Y-17034761D01*
X42433928Y-17082380D01*
X42195833Y-17082380D01*
X42100595Y-17034761D01*
X42052976Y-16987142D01*
X43243452Y-16082380D02*
X43338690Y-16082380D01*
X43433928Y-16130000D01*
X43481547Y-16177619D01*
X43529166Y-16272857D01*
X43576785Y-16463333D01*
X43576785Y-16701428D01*
X43529166Y-16891904D01*
X43481547Y-16987142D01*
X43433928Y-17034761D01*
X43338690Y-17082380D01*
X43243452Y-17082380D01*
X43148214Y-17034761D01*
X43100595Y-16987142D01*
X43052976Y-16891904D01*
X43005357Y-16701428D01*
X43005357Y-16463333D01*
X43052976Y-16272857D01*
X43100595Y-16177619D01*
X43148214Y-16130000D01*
X43243452Y-16082380D01*
X44767261Y-17082380D02*
X44767261Y-16415714D01*
X44767261Y-16510952D02*
X44814880Y-16463333D01*
X44910119Y-16415714D01*
X45052976Y-16415714D01*
X45148214Y-16463333D01*
X45195833Y-16558571D01*
X45195833Y-17082380D01*
X45195833Y-16558571D02*
X45243452Y-16463333D01*
X45338690Y-16415714D01*
X45481547Y-16415714D01*
X45576785Y-16463333D01*
X45624404Y-16558571D01*
X45624404Y-17082380D01*
X46100595Y-17082380D02*
X46100595Y-16415714D01*
X46100595Y-16510952D02*
X46148214Y-16463333D01*
X46243452Y-16415714D01*
X46386309Y-16415714D01*
X46481547Y-16463333D01*
X46529166Y-16558571D01*
X46529166Y-17082380D01*
X46529166Y-16558571D02*
X46576785Y-16463333D01*
X46672023Y-16415714D01*
X46814880Y-16415714D01*
X46910119Y-16463333D01*
X46957738Y-16558571D01*
X46957738Y-17082380D01*
X45720000Y-22360000D02*
X45720000Y-17193580D01*
X40005000Y-22360000D02*
X40005000Y-17193580D01*
X45720000Y-17780000D02*
X44593496Y-17193579D01*
X45720000Y-17780000D02*
X44593496Y-18366421D01*
X40005000Y-17780000D02*
X41131504Y-18366421D01*
X40005000Y-17780000D02*
X41131504Y-17193579D01*
X99616190Y-17082380D02*
X99044761Y-17082380D01*
X99330476Y-17082380D02*
X99330476Y-16082380D01*
X99235238Y-16225238D01*
X99140000Y-16320476D01*
X99044761Y-16368095D01*
X100568571Y-17082380D02*
X99997142Y-17082380D01*
X100282857Y-17082380D02*
X100282857Y-16082380D01*
X100187619Y-16225238D01*
X100092380Y-16320476D01*
X99997142Y-16368095D01*
X101425714Y-16082380D02*
X101235238Y-16082380D01*
X101140000Y-16130000D01*
X101092380Y-16177619D01*
X100997142Y-16320476D01*
X100949523Y-16510952D01*
X100949523Y-16891904D01*
X100997142Y-16987142D01*
X101044761Y-17034761D01*
X101140000Y-17082380D01*
X101330476Y-17082380D01*
X101425714Y-17034761D01*
X101473333Y-16987142D01*
X101520952Y-16891904D01*
X101520952Y-16653809D01*
X101473333Y-16558571D01*
X101425714Y-16510952D01*
X101330476Y-16463333D01*
X101140000Y-16463333D01*
X101044761Y-16510952D01*
X100997142Y-16558571D01*
X100949523Y-16653809D01*
X101997142Y-17034761D02*
X101997142Y-17082380D01*
X101949523Y-17177619D01*
X101901904Y-17225238D01*
X102568571Y-16510952D02*
X102473333Y-16463333D01*
X102425714Y-16415714D01*
X102378095Y-16320476D01*
X102378095Y-16272857D01*
X102425714Y-16177619D01*
X102473333Y-16130000D01*
X102568571Y-16082380D01*
X102759047Y-16082380D01*
X102854285Y-16130000D01*
X102901904Y-16177619D01*
X102949523Y-16272857D01*
X102949523Y-16320476D01*
X102901904Y-16415714D01*
X102854285Y-16463333D01*
X102759047Y-16510952D01*
X102568571Y-16510952D01*
X102473333Y-16558571D01*
X102425714Y-16606190D01*
X102378095Y-16701428D01*
X102378095Y-16891904D01*
X102425714Y-16987142D01*
X102473333Y-17034761D01*
X102568571Y-17082380D01*
X102759047Y-17082380D01*
X102854285Y-17034761D01*
X102901904Y-16987142D01*
X102949523Y-16891904D01*
X102949523Y-16701428D01*
X102901904Y-16606190D01*
X102854285Y-16558571D01*
X102759047Y-16510952D01*
X103806666Y-16415714D02*
X103806666Y-17082380D01*
X103568571Y-16034761D02*
X103330476Y-16749047D01*
X103949523Y-16749047D01*
X104520952Y-16082380D02*
X104616190Y-16082380D01*
X104711428Y-16130000D01*
X104759047Y-16177619D01*
X104806666Y-16272857D01*
X104854285Y-16463333D01*
X104854285Y-16701428D01*
X104806666Y-16891904D01*
X104759047Y-16987142D01*
X104711428Y-17034761D01*
X104616190Y-17082380D01*
X104520952Y-17082380D01*
X104425714Y-17034761D01*
X104378095Y-16987142D01*
X104330476Y-16891904D01*
X104282857Y-16701428D01*
X104282857Y-16463333D01*
X104330476Y-16272857D01*
X104378095Y-16177619D01*
X104425714Y-16130000D01*
X104520952Y-16082380D01*
X105473333Y-16082380D02*
X105568571Y-16082380D01*
X105663809Y-16130000D01*
X105711428Y-16177619D01*
X105759047Y-16272857D01*
X105806666Y-16463333D01*
X105806666Y-16701428D01*
X105759047Y-16891904D01*
X105711428Y-16987142D01*
X105663809Y-17034761D01*
X105568571Y-17082380D01*
X105473333Y-17082380D01*
X105378095Y-17034761D01*
X105330476Y-16987142D01*
X105282857Y-16891904D01*
X105235238Y-16701428D01*
X105235238Y-16463333D01*
X105282857Y-16272857D01*
X105330476Y-16177619D01*
X105378095Y-16130000D01*
X105473333Y-16082380D01*
X106997142Y-17082380D02*
X106997142Y-16415714D01*
X106997142Y-16510952D02*
X107044761Y-16463333D01*
X107140000Y-16415714D01*
X107282857Y-16415714D01*
X107378095Y-16463333D01*
X107425714Y-16558571D01*
X107425714Y-17082380D01*
X107425714Y-16558571D02*
X107473333Y-16463333D01*
X107568571Y-16415714D01*
X107711428Y-16415714D01*
X107806666Y-16463333D01*
X107854285Y-16558571D01*
X107854285Y-17082380D01*
X108330476Y-17082380D02*
X108330476Y-16415714D01*
X108330476Y-16510952D02*
X108378095Y-16463333D01*
X108473333Y-16415714D01*
X108616190Y-16415714D01*
X108711428Y-16463333D01*
X108759047Y-16558571D01*
X108759047Y-17082380D01*
X108759047Y-16558571D02*
X108806666Y-16463333D01*
X108901904Y-16415714D01*
X109044761Y-16415714D01*
X109140000Y-16463333D01*
X109187619Y-16558571D01*
X109187619Y-17082380D01*
X45720000Y-27440000D02*
X45720000Y-17193580D01*
X162560000Y-27440000D02*
X162560000Y-17193580D01*
X45720000Y-17780000D02*
X98279286Y-17780000D01*
X110000715Y-17780000D02*
X162560000Y-17780000D01*
X45720000Y-17780000D02*
X46846504Y-18366421D01*
X45720000Y-17780000D02*
X46846504Y-17193579D01*
X162560000Y-17780000D02*
X161433496Y-17193579D01*
X162560000Y-17780000D02*
X161433496Y-18366421D01*
X99616190Y-131382379D02*
X99044761Y-131382379D01*
X99330476Y-131382379D02*
X99330476Y-130382379D01*
X99235238Y-130525237D01*
X99140000Y-130620475D01*
X99044761Y-130668094D01*
X99997142Y-130477618D02*
X100044761Y-130429999D01*
X100140000Y-130382379D01*
X100378095Y-130382379D01*
X100473333Y-130429999D01*
X100520952Y-130477618D01*
X100568571Y-130572856D01*
X100568571Y-130668094D01*
X100520952Y-130810951D01*
X99949523Y-131382379D01*
X100568571Y-131382379D01*
X101140000Y-130810951D02*
X101044761Y-130763332D01*
X100997142Y-130715713D01*
X100949523Y-130620475D01*
X100949523Y-130572856D01*
X100997142Y-130477618D01*
X101044761Y-130429999D01*
X101140000Y-130382379D01*
X101330476Y-130382379D01*
X101425714Y-130429999D01*
X101473333Y-130477618D01*
X101520952Y-130572856D01*
X101520952Y-130620475D01*
X101473333Y-130715713D01*
X101425714Y-130763332D01*
X101330476Y-130810951D01*
X101140000Y-130810951D01*
X101044761Y-130858570D01*
X100997142Y-130906189D01*
X100949523Y-131001427D01*
X100949523Y-131191903D01*
X100997142Y-131287141D01*
X101044761Y-131334760D01*
X101140000Y-131382379D01*
X101330476Y-131382379D01*
X101425714Y-131334760D01*
X101473333Y-131287141D01*
X101520952Y-131191903D01*
X101520952Y-131001427D01*
X101473333Y-130906189D01*
X101425714Y-130858570D01*
X101330476Y-130810951D01*
X101997142Y-131334760D02*
X101997142Y-131382379D01*
X101949523Y-131477618D01*
X101901904Y-131525237D01*
X102378095Y-130477618D02*
X102425714Y-130429999D01*
X102520952Y-130382379D01*
X102759047Y-130382379D01*
X102854285Y-130429999D01*
X102901904Y-130477618D01*
X102949523Y-130572856D01*
X102949523Y-130668094D01*
X102901904Y-130810951D01*
X102330476Y-131382379D01*
X102949523Y-131382379D01*
X103282857Y-130382379D02*
X103949523Y-130382379D01*
X103520952Y-131382379D01*
X104520952Y-130382379D02*
X104616190Y-130382379D01*
X104711428Y-130429999D01*
X104759047Y-130477618D01*
X104806666Y-130572856D01*
X104854285Y-130763332D01*
X104854285Y-131001427D01*
X104806666Y-131191903D01*
X104759047Y-131287141D01*
X104711428Y-131334760D01*
X104616190Y-131382379D01*
X104520952Y-131382379D01*
X104425714Y-131334760D01*
X104378095Y-131287141D01*
X104330476Y-131191903D01*
X104282857Y-131001427D01*
X104282857Y-130763332D01*
X104330476Y-130572856D01*
X104378095Y-130477618D01*
X104425714Y-130429999D01*
X104520952Y-130382379D01*
X105473333Y-130382379D02*
X105568571Y-130382379D01*
X105663809Y-130429999D01*
X105711428Y-130477618D01*
X105759047Y-130572856D01*
X105806666Y-130763332D01*
X105806666Y-131001427D01*
X105759047Y-131191903D01*
X105711428Y-131287141D01*
X105663809Y-131334760D01*
X105568571Y-131382379D01*
X105473333Y-131382379D01*
X105378095Y-131334760D01*
X105330476Y-131287141D01*
X105282857Y-131191903D01*
X105235238Y-131001427D01*
X105235238Y-130763332D01*
X105282857Y-130572856D01*
X105330476Y-130477618D01*
X105378095Y-130429999D01*
X105473333Y-130382379D01*
X106997142Y-131382379D02*
X106997142Y-130715713D01*
X106997142Y-130810951D02*
X107044761Y-130763332D01*
X107140000Y-130715713D01*
X107282857Y-130715713D01*
X107378095Y-130763332D01*
X107425714Y-130858570D01*
X107425714Y-131382379D01*
X107425714Y-130858570D02*
X107473333Y-130763332D01*
X107568571Y-130715713D01*
X107711428Y-130715713D01*
X107806666Y-130763332D01*
X107854285Y-130858570D01*
X107854285Y-131382379D01*
X108330476Y-131382379D02*
X108330476Y-130715713D01*
X108330476Y-130810951D02*
X108378095Y-130763332D01*
X108473333Y-130715713D01*
X108616190Y-130715713D01*
X108711428Y-130763332D01*
X108759047Y-130858570D01*
X108759047Y-131382379D01*
X108759047Y-130858570D02*
X108806666Y-130763332D01*
X108901904Y-130715713D01*
X109044761Y-130715713D01*
X109140000Y-130763332D01*
X109187619Y-130858570D01*
X109187619Y-131382379D01*
X40005000Y-127500000D02*
X40005000Y-132666419D01*
X168275000Y-127500000D02*
X168275000Y-132666419D01*
X40005000Y-132079999D02*
X98279286Y-132079999D01*
X110000715Y-132079999D02*
X168275000Y-132079999D01*
X40005000Y-132079999D02*
X41131504Y-132666420D01*
X40005000Y-132079999D02*
X41131504Y-131493578D01*
X168275000Y-132079999D02*
X167148496Y-131493578D01*
X168275000Y-132079999D02*
X167148496Y-132666420D01*
X36132381Y-79453809D02*
X36132381Y-80025238D01*
X36132381Y-79739523D02*
X35132381Y-79739523D01*
X35275239Y-79834761D01*
X35370477Y-79930000D01*
X35418096Y-80025238D01*
X35132381Y-78834761D02*
X35132381Y-78739523D01*
X35180001Y-78644285D01*
X35227620Y-78596666D01*
X35322858Y-78549047D01*
X35513334Y-78501428D01*
X35751429Y-78501428D01*
X35941905Y-78549047D01*
X36037143Y-78596666D01*
X36084762Y-78644285D01*
X36132381Y-78739523D01*
X36132381Y-78834761D01*
X36084762Y-78930000D01*
X36037143Y-78977619D01*
X35941905Y-79025238D01*
X35751429Y-79072857D01*
X35513334Y-79072857D01*
X35322858Y-79025238D01*
X35227620Y-78977619D01*
X35180001Y-78930000D01*
X35132381Y-78834761D01*
X35465715Y-77644285D02*
X36132381Y-77644285D01*
X35084762Y-77882380D02*
X35799048Y-78120476D01*
X35799048Y-77501428D01*
X36084762Y-77072857D02*
X36132381Y-77072857D01*
X36227620Y-77120476D01*
X36275239Y-77168095D01*
X36132381Y-76120476D02*
X36132381Y-76691904D01*
X36132381Y-76406190D02*
X35132381Y-76406190D01*
X35275239Y-76501428D01*
X35370477Y-76596666D01*
X35418096Y-76691904D01*
X35465715Y-75263333D02*
X36132381Y-75263333D01*
X35084762Y-75501428D02*
X35799048Y-75739523D01*
X35799048Y-75120476D01*
X35132381Y-74549047D02*
X35132381Y-74453809D01*
X35180001Y-74358571D01*
X35227620Y-74310952D01*
X35322858Y-74263333D01*
X35513334Y-74215714D01*
X35751429Y-74215714D01*
X35941905Y-74263333D01*
X36037143Y-74310952D01*
X36084762Y-74358571D01*
X36132381Y-74453809D01*
X36132381Y-74549047D01*
X36084762Y-74644285D01*
X36037143Y-74691904D01*
X35941905Y-74739523D01*
X35751429Y-74787142D01*
X35513334Y-74787142D01*
X35322858Y-74739523D01*
X35227620Y-74691904D01*
X35180001Y-74644285D01*
X35132381Y-74549047D01*
X35132381Y-73596666D02*
X35132381Y-73501428D01*
X35180001Y-73406190D01*
X35227620Y-73358571D01*
X35322858Y-73310952D01*
X35513334Y-73263333D01*
X35751429Y-73263333D01*
X35941905Y-73310952D01*
X36037143Y-73358571D01*
X36084762Y-73406190D01*
X36132381Y-73501428D01*
X36132381Y-73596666D01*
X36084762Y-73691904D01*
X36037143Y-73739523D01*
X35941905Y-73787142D01*
X35751429Y-73834761D01*
X35513334Y-73834761D01*
X35322858Y-73787142D01*
X35227620Y-73739523D01*
X35180001Y-73691904D01*
X35132381Y-73596666D01*
X36132381Y-72072857D02*
X35465715Y-72072857D01*
X35560953Y-72072857D02*
X35513334Y-72025238D01*
X35465715Y-71930000D01*
X35465715Y-71787142D01*
X35513334Y-71691904D01*
X35608572Y-71644285D01*
X36132381Y-71644285D01*
X35608572Y-71644285D02*
X35513334Y-71596666D01*
X35465715Y-71501428D01*
X35465715Y-71358571D01*
X35513334Y-71263333D01*
X35608572Y-71215714D01*
X36132381Y-71215714D01*
X36132381Y-70739523D02*
X35465715Y-70739523D01*
X35560953Y-70739523D02*
X35513334Y-70691904D01*
X35465715Y-70596666D01*
X35465715Y-70453809D01*
X35513334Y-70358571D01*
X35608572Y-70310952D01*
X36132381Y-70310952D01*
X35608572Y-70310952D02*
X35513334Y-70263333D01*
X35465715Y-70168095D01*
X35465715Y-70025238D01*
X35513334Y-69930000D01*
X35608572Y-69882380D01*
X36132381Y-69882380D01*
X39505000Y-22860000D02*
X36243581Y-22860000D01*
X39505000Y-127000000D02*
X36243581Y-127000000D01*
X36830001Y-22860000D02*
X36830001Y-69069285D01*
X36830001Y-80790714D02*
X36830001Y-127000000D01*
X36830001Y-22860000D02*
X36243580Y-23986504D01*
X36830001Y-22860000D02*
X37416422Y-23986504D01*
X36830001Y-127000000D02*
X37416422Y-125873496D01*
X36830001Y-127000000D02*
X36243580Y-125873496D01*
D11*
%TO.C,REF\u002A\u002A*%
X162560000Y-27940000D03*
%TD*%
%TO.C,*%
X162560000Y-27940000D03*
%TD*%
D12*
%TO.C,*%
X55970000Y-111760000D03*
D13*
X61050000Y-111760000D03*
D12*
X66130000Y-111760000D03*
D14*
X63590000Y-106680000D03*
X57240000Y-109220000D03*
%TD*%
D12*
%TO.C,*%
X119470000Y-66040000D03*
D13*
X114390000Y-66040000D03*
D12*
X109310000Y-66040000D03*
D14*
X116930000Y-60960000D03*
X110580000Y-63500000D03*
%TD*%
D11*
%TO.C,*%
X162560000Y-27940000D03*
%TD*%
D15*
%TO.C,U1*%
X147515000Y-30945000D03*
X144975000Y-30945000D03*
X137355000Y-30945000D03*
X134815000Y-30945000D03*
X132275000Y-30945000D03*
X129735000Y-30945000D03*
X127195000Y-30945000D03*
X124655000Y-30945000D03*
X122115000Y-30945000D03*
X119575000Y-30945000D03*
X119575000Y-45795000D03*
X124655000Y-45795000D03*
X127195000Y-45795000D03*
X122115000Y-45795000D03*
X129735000Y-45795000D03*
X132275000Y-45795000D03*
X134815000Y-45795000D03*
X137355000Y-45795000D03*
X144975000Y-45795000D03*
X139895000Y-30945000D03*
X142435000Y-30945000D03*
X147515000Y-45795000D03*
X142435000Y-45795000D03*
X139895000Y-45795000D03*
%TD*%
D13*
%TO.C,*%
X61050000Y-88900000D03*
D12*
X66130000Y-88900000D03*
X55970000Y-88900000D03*
D14*
X63590000Y-83820000D03*
X57240000Y-86360000D03*
%TD*%
D12*
%TO.C,SW2*%
X93980000Y-39135000D03*
D13*
X99060000Y-39135000D03*
D12*
X104140000Y-39135000D03*
D14*
X101600000Y-34055000D03*
X95250000Y-36595000D03*
%TD*%
D12*
%TO.C,*%
X137250000Y-88900000D03*
X147410000Y-88900000D03*
D13*
X142330000Y-88900000D03*
D14*
X144870000Y-83820000D03*
X138520000Y-86360000D03*
%TD*%
D11*
%TO.C,REF\u002A\u002A*%
X45720000Y-27940000D03*
%TD*%
D13*
%TO.C,*%
X61050000Y-66040000D03*
D12*
X55970000Y-66040000D03*
X66130000Y-66040000D03*
D14*
X63590000Y-60960000D03*
X57240000Y-63500000D03*
%TD*%
D16*
%TO.C,R1*%
X55245000Y-52070000D03*
D17*
X55245000Y-41910000D03*
%TD*%
D16*
%TO.C,R2*%
X51435000Y-52070000D03*
D17*
X51435000Y-41910000D03*
%TD*%
D12*
%TO.C,*%
X119470000Y-88900000D03*
D13*
X114390000Y-88900000D03*
D12*
X109310000Y-88900000D03*
D14*
X116930000Y-83820000D03*
X110580000Y-86360000D03*
%TD*%
D13*
%TO.C,*%
X86450000Y-66040000D03*
D12*
X81370000Y-66040000D03*
X91530000Y-66040000D03*
D14*
X88990000Y-60960000D03*
X82640000Y-63500000D03*
%TD*%
D13*
%TO.C,*%
X86450000Y-111760000D03*
D12*
X91530000Y-111760000D03*
X81370000Y-111760000D03*
D14*
X88990000Y-106680000D03*
X82640000Y-109220000D03*
%TD*%
D13*
%TO.C,*%
X142330000Y-111760000D03*
D12*
X137250000Y-111760000D03*
X147410000Y-111760000D03*
D14*
X144870000Y-106680000D03*
X138520000Y-109220000D03*
%TD*%
D18*
%TO.C,SW1*%
X58420000Y-36635000D03*
D15*
X58420000Y-41635000D03*
X58420000Y-39135000D03*
D19*
X65920000Y-44735000D03*
X65920000Y-33535000D03*
D15*
X72920000Y-41635000D03*
X72920000Y-36635000D03*
%TD*%
D11*
%TO.C,REF\u002A\u002A*%
X45720000Y-121920000D03*
%TD*%
D13*
%TO.C,*%
X142330000Y-66040000D03*
D12*
X147410000Y-66040000D03*
X137250000Y-66040000D03*
D14*
X144870000Y-60960000D03*
X138520000Y-63500000D03*
%TD*%
D13*
%TO.C,*%
X114390000Y-111760000D03*
D12*
X109310000Y-111760000D03*
X119470000Y-111760000D03*
D14*
X116930000Y-106680000D03*
X110580000Y-109220000D03*
%TD*%
D12*
%TO.C,*%
X91530000Y-88900000D03*
D13*
X86450000Y-88900000D03*
D12*
X81370000Y-88900000D03*
D14*
X88990000Y-83820000D03*
X82640000Y-86360000D03*
%TD*%
D11*
%TO.C,REF\u002A\u002A*%
X162560000Y-121920000D03*
%TD*%
M02*
